Mada-Regular.ufo
<glyph name="arComma" format="2">
  <advance width="249"/>
  <unicode hex="060C"/>
  <outline>
    <contour>
      <point x="182" y="272" type="line"/>
      <point x="101" y="238"/>
      <point x="51" y="171"/>
      <point x="51" y="85" type="curve" smooth="yes"/>
      <point x="51" y="25"/>
      <point x="77" y="-12"/>
      <point x="120" y="-12" type="curve" smooth="yes"/>
      <point x="153" y="-12"/>
      <point x="181" y="10"/>
      <point x="181" y="46" type="curve" smooth="yes"/>
      <point x="181" y="83"/>
      <point x="154" y="103"/>
      <point x="122" y="103" type="curve" smooth="yes"/>
      <point x="106" y="103"/>
      <point x="91" y="99"/>
      <point x="80" y="86" type="curve"/>
      <point x="121" y="26" type="line"/>
      <point x="112" y="100" type="line"/>
      <point x="111" y="155"/>
      <point x="145" y="199"/>
      <point x="202" y="224" type="curve"/>
    </contour>
  </outline>
</glyph>
<glyph name="arSemicolon" format="2">
  <advance width="249"/>
  <unicode hex="061B"/>
  <outline>
    <contour>
      <point x="124" y="114" type="curve" smooth="yes"/>
      <point x="92" y="114"/>
      <point x="65" y="88"/>
      <point x="65" y="52" type="curve" smooth="yes"/>
      <point x="65" y="14"/>
      <point x="92" y="-12"/>
      <point x="124" y="-12" type="curve" smooth="yes"/>
      <point x="157" y="-12"/>
      <point x="184" y="14"/>
      <point x="184" y="52" type="curve" smooth="yes"/>
      <point x="184" y="88"/>
      <point x="157" y="114"/>
    </contour>
    <contour>
      <point x="182" y="633" type="line"/>
      <point x="101" y="599"/>
      <point x="51" y="532"/>
      <point x="51" y="446" type="curve" smooth="yes"/>
      <point x="51" y="386"/>
      <point x="77" y="349"/>
      <point x="120" y="349" type="curve" smooth="yes"/>
      <point x="153" y="349"/>
      <point x="181" y="371"/>
      <point x="181" y="407" type="curve" smooth="yes"/>
      <point x="181" y="444"/>
      <point x="154" y="464"/>
      <point x="122" y="464" type="curve" smooth="yes"/>
      <point x="106" y="464"/>
      <point x="91" y="460"/>
      <point x="80" y="447" type="curve"/>
      <point x="121" y="387" type="line"/>
      <point x="112" y="461" type="line"/>
      <point x="111" y="516"/>
      <point x="145" y="560"/>
      <point x="202" y="585" type="curve"/>
    </contour>
  </outline>
</glyph>
<glyph name="arQuestion" format="2">
  <advance width="425"/>
  <unicode hex="061F"/>
  <outline>
    <contour>
      <point x="265" y="198" type="curve"/>
      <point x="193" y="198" type="line"/>
      <point x="209" y="338"/>
      <point x="48" y="391"/>
      <point x="48" y="522" type="curve" smooth="yes"/>
      <point x="48" y="621"/>
      <point x="114" y="682"/>
      <point x="215" y="682" type="curve" smooth="yes"/>
      <point x="288" y="682"/>
      <point x="345" y="647"/>
      <point x="387" y="599" type="curve"/>
      <point x="340" y="556" type="line"/>
      <point x="309" y="592"/>
      <point x="269" y="614"/>
      <point x="225" y="614" type="curve" smooth="yes"/>
      <point x="161" y="614"/>
      <point x="128" y="570"/>
      <point x="128" y="517" type="curve" smooth="yes"/>
      <point x="128" y="411"/>
      <point x="287" y="354"/>
    </contour>
    <contour>
      <point x="227" y="-12" type="curve" smooth="yes"/>
      <point x="194" y="-12"/>
      <point x="167" y="14"/>
      <point x="167" y="50" type="curve" smooth="yes"/>
      <point x="167" y="88"/>
      <point x="194" y="114"/>
      <point x="227" y="114" type="curve" smooth="yes"/>
      <point x="260" y="114"/>
      <point x="286" y="88"/>
      <point x="286" y="50" type="curve" smooth="yes"/>
      <point x="286" y="14"/>
      <point x="260" y="-12"/>
    </contour>
  </outline>
</glyph>
<glyph name="hamza-ar" format="2">
  <advance width="416"/>
  <unicode hex="0621"/>
  <anchor x="242" y="326" name="dotAbove"/>
  <anchor x="170" y="-86" name="dotBelow"/>
  <anchor x="242" y="363" name="markAbove"/>
  <anchor x="170" y="-113" name="markBelow"/>
  <outline>
    <contour>
      <point x="335" y="225" type="line"/>
      <point x="335" y="147" type="line"/>
      <point x="241" y="147" type="line"/>
      <point x="273" y="78" type="line" smooth="yes"/>
      <point x="279" y="65"/>
      <point x="292" y="43"/>
      <point x="276" y="21" type="curve" smooth="yes"/>
      <point x="262" y="2"/>
      <point x="238" y="0"/>
      <point x="227" y="0" type="curve" smooth="yes"/>
      <point x="81" y="0" type="line"/>
      <point x="81" y="79" type="line"/>
      <point x="186" y="79" type="line"/>
      <point x="154" y="146" type="line" smooth="yes"/>
      <point x="153.611" y="146.814"/>
      <point x="135" y="179"/>
      <point x="152" y="203" type="curve" smooth="yes"/>
      <point x="160" y="215"/>
      <point x="178" y="225"/>
      <point x="204" y="225" type="curve" smooth="yes"/>
    </contour>
  </outline>
</glyph>
<glyph name="uni0621" format="2">
  <advance width="498"/>
  <unicode hex="0621"/>
  <outline>
    <contour>
      <point x="393.87890625" y="272.00390625" type="line"/>
      <point x="393.87890625" y="167.00390625" type="line"/>
      <point x="298.41796875" y="167.00390625" type="line"/>
      <point x="329.845703125" y="100.3671875" type="line" smooth="yes"/>
      <point x="337.208984375" y="82.5048828125"/>
      <point x="353.451171875" y="54.8818359375"/>
      <point x="333.201171875" y="27.1318359375" type="curve" smooth="yes"/>
      <point x="314.923828125" y="2.0859375"/>
      <point x="283.9453125" y="0.4677734375"/>
      <point x="270.3251953125" y="0.4677734375" type="curve" smooth="yes"/>
      <point x="105.0" y="0.4677734375" type="line"/>
      <point x="105.0" y="105.4677734375" type="line"/>
      <point x="211.349609375" y="105.4677734375" type="line"/>
      <point x="180.341796875" y="171.216796875" type="line"/>
      <point x="180.341796875" y="171.216796875"/>
      <point x="156.841796875" y="210.880859375"/>
      <point x="176.439453125" y="241.6318359375" type="curve" smooth="yes"/>
      <point x="186.802734375" y="257.8916015625"/>
      <point x="209.103515625" y="272.00390625"/>
      <point x="244.05859375" y="272.00390625" type="curve" smooth="yes"/>
    </contour>
  </outline>
</glyph>
<glyph name="alef-ar" format="2">
  <advance width="200"/>
  <unicode hex="0627"/>
  <anchor x="99" y="664" name="dotAbove"/>
  <anchor x="99" y="-29" name="dotBelow"/>
  <anchor x="99" y="664" name="hamzaAbove"/>
  <anchor x="99" y="-29" name="hamzaBelow"/>
  <anchor x="99" y="664" name="kafAbove"/>
  <anchor x="99" y="701" name="markAbove"/>
  <anchor x="99" y="-53" name="markBelow"/>
  <outline>
    <contour>
      <point x="61" y="624" type="line"/>
      <point x="139" y="624" type="line"/>
      <point x="139" y="82" type="line" smooth="yes"/>
      <point x="139" y="37"/>
      <point x="111" y="0"/>
      <point x="61" y="0" type="curve"/>
    </contour>
  </outline>
</glyph>
<glyph name="uni062C" format="2">
  <advance width="1000"/>
  <unicode hex="062C"/>
  <outline>
    <contour>
      <point x="0" y="-200" type="line"/>
      <point x="0" y="800" type="line"/>
      <point x="1000" y="800" type="line"/>
      <point x="1000" y="-200" type="line"/>
    </contour>
  </outline>
</glyph>
<glyph name="uni0640" format="2">
  <advance width="253"/>
  <unicode hex="0640"/>
  <anchor x="122" y="-109" name="dotBelow"/>
  <anchor x="126" y="-139" name="markBelow"/>
  <anchor x="122" y="314" name="dotAbove"/>
  <anchor x="122" y="352" name="markAbove"/>
  <anchor x="122" y="0" name="ringBelow"/>
  <outline>
    <contour>
      <point x="258" y="0" type="line"/>
      <point x="-5" y="0" type="line"/>
      <point x="-5" y="79" type="line"/>
      <point x="258" y="79" type="line"/>
    </contour>
  </outline>
</glyph>
<glyph name="dammatan-ar" format="2">
  <unicode hex="064C"/>
  <anchor x="0" y="0" name="_markAbove"/>
  <anchor x="0" y="0" name="_markAboveDot"/>
  <outline>
    <contour>
      <point x="7" y="39" type="line"/>
      <point x="-6" y="75" type="line" smooth="yes"/>
      <point x="-18" y="108"/>
      <point x="-1" y="144"/>
      <point x="31" y="154" type="curve" smooth="yes"/>
      <point x="83" y="168"/>
      <point x="127" y="136"/>
      <point x="141" y="100" type="curve" smooth="yes"/>
      <point x="150" y="73"/>
      <point x="141" y="40"/>
      <point x="107" y="27" type="curve" smooth="yes"/>
      <point x="-32" y="-23" type="line" smooth="yes"/>
      <point x="-68" y="-37"/>
      <point x="-115" y="-22"/>
      <point x="-130" y="21" type="curve" smooth="yes"/>
      <point x="-144" y="60" type="line" smooth="yes"/>
      <point x="-148" y="72"/>
      <point x="-143" y="85"/>
      <point x="-131" y="89" type="curve" smooth="yes"/>
      <point x="-119" y="93"/>
      <point x="-106" y="87"/>
      <point x="-102" y="76" type="curve" smooth="yes"/>
      <point x="-88" y="36" type="line" smooth="yes"/>
      <point x="-83" y="20"/>
      <point x="-63" y="13"/>
      <point x="-47" y="19" type="curve" smooth="yes"/>
    </contour>
    <contour>
      <point x="49" y="54" type="line"/>
      <point x="91" y="70" type="line" smooth="yes"/>
      <point x="101" y="74"/>
      <point x="102" y="76"/>
      <point x="99" y="85" type="curve" smooth="yes"/>
      <point x="93" y="100"/>
      <point x="70" y="117"/>
      <point x="44" y="110" type="curve"/>
      <point x="37" y="108"/>
      <point x="32" y="99"/>
      <point x="36" y="89" type="curve" smooth="yes"/>
    </contour>
  </outline>
</glyph>
<glyph name="uni064E" format="2">
  <unicode hex="064E"/>
  <anchor x="0" y="0" name="_markAbove"/>
  <anchor x="0" y="0" name="_markAboveDot"/>
  <outline>
    <contour>
      <point x="-121" y="-2" type="curve" smooth="yes"/>
      <point x="-124" y="10"/>
      <point x="-119" y="23"/>
      <point x="-107" y="27" type="curve" smooth="yes"/>
      <point x="91" y="99" type="line" smooth="yes"/>
      <point x="103" y="103"/>
      <point x="117" y="98"/>
      <point x="121" y="86" type="curve" smooth="yes"/>
      <point x="124" y="74"/>
      <point x="119" y="61"/>
      <point x="107" y="58" type="curve" smooth="yes"/>
      <point x="-91" y="-15" type="line" smooth="yes"/>
      <point x="-103" y="-19"/>
      <point x="-117" y="-14"/>
    </contour>
  </outline>
</glyph>
<glyph name="damma-ar" format="2">
  <unicode hex="064F"/>
  <anchor x="0" y="0" name="_markAbove"/>
  <anchor x="0" y="0" name="_markAboveDot"/>
  <outline>
    <contour>
      <point x="-26" y="43" type="line"/>
      <point x="-37" y="79" type="line" smooth="yes"/>
      <point x="-49" y="112"/>
      <point x="-32" y="149"/>
      <point x="0" y="159" type="curve" smooth="yes"/>
      <point x="52" y="173"/>
      <point x="96" y="141"/>
      <point x="109" y="105" type="curve" smooth="yes"/>
      <point x="119" y="78"/>
      <point x="109" y="45"/>
      <point x="75" y="32" type="curve" smooth="yes"/>
      <point x="-92" y="-28" type="line" smooth="yes"/>
      <point x="-104" y="-32"/>
      <point x="-117" y="-27"/>
      <point x="-120" y="-15" type="curve" smooth="yes"/>
      <point x="-124" y="-3"/>
      <point x="-119" y="10"/>
      <point x="-107" y="13" type="curve" smooth="yes"/>
    </contour>
    <contour>
      <point x="17" y="59" type="line"/>
      <point x="60" y="75" type="line" smooth="yes"/>
      <point x="70" y="78"/>
      <point x="71" y="80"/>
      <point x="68" y="89" type="curve" smooth="yes"/>
      <point x="62" y="105"/>
      <point x="39" y="122"/>
      <point x="12" y="115" type="curve"/>
      <point x="7" y="113"/>
      <point x="1" y="104"/>
      <point x="5" y="94" type="curve" smooth="yes"/>
    </contour>
  </outline>
</glyph>
<glyph name="uni0651" format="2">
  <unicode hex="0651"/>
  <anchor x="0" y="0" name="_markAbove"/>
  <anchor x="0" y="217" name="markAbove"/>
  <anchor x="0" y="0" name="_markAboveDot"/>
  <outline>
    <contour>
      <point x="-120" y="110" type="line" smooth="yes"/>
      <point x="-120" y="122"/>
      <point x="-111" y="133"/>
      <point x="-99" y="133" type="curve" smooth="yes"/>
      <point x="-86" y="133"/>
      <point x="-77" y="122"/>
      <point x="-77" y="110" type="curve" smooth="yes"/>
      <point x="-77" y="12" type="line"/>
      <point x="-67" y="14"/>
      <point x="-54" y="7"/>
      <point x="-51" y="-4" type="curve" smooth="yes"/>
      <point x="-48" y="-16"/>
      <point x="-55" y="-28"/>
      <point x="-66" y="-32" type="curve" smooth="yes"/>
      <point x="-81" y="-35"/>
      <point x="-98" y="-34"/>
      <point x="-109" y="-23" type="curve" smooth="yes"/>
      <point x="-120" y="-12"/>
      <point x="-120" y="2"/>
      <point x="-120" y="11" type="curve" smooth="yes"/>
    </contour>
    <contour>
      <point x="-24" y="129" type="line" smooth="yes"/>
      <point x="-24" y="142"/>
      <point x="-14" y="151"/>
      <point x="-1" y="151" type="curve" smooth="yes"/>
      <point x="12" y="151"/>
      <point x="22" y="142"/>
      <point x="22" y="129" type="curve" smooth="yes"/>
      <point x="22" y="30" type="line" smooth="yes"/>
      <point x="22" y="6"/>
      <point x="2" y="-9"/>
      <point x="-17" y="-15" type="curve" smooth="yes"/>
      <point x="-65" y="-32" type="line" smooth="yes"/>
      <point x="-77" y="-35"/>
      <point x="-90" y="-30"/>
      <point x="-94" y="-18" type="curve" smooth="yes"/>
      <point x="-98" y="-6"/>
      <point x="-91" y="8"/>
      <point x="-80" y="12" type="curve" smooth="yes"/>
      <point x="-24" y="31" type="line"/>
    </contour>
    <contour>
      <point x="78" y="165" type="line" smooth="yes"/>
      <point x="78" y="178"/>
      <point x="87" y="187"/>
      <point x="99" y="187" type="curve" smooth="yes"/>
      <point x="112" y="187"/>
      <point x="121" y="178"/>
      <point x="121" y="165" type="curve" smooth="yes"/>
      <point x="121" y="66" type="line" smooth="yes"/>
      <point x="121" y="42"/>
      <point x="103" y="28"/>
      <point x="87" y="22" type="curve" smooth="yes"/>
      <point x="49" y="8" type="line" smooth="yes"/>
      <point x="37" y="5"/>
      <point x="23" y="11"/>
      <point x="19" y="23" type="curve" smooth="yes"/>
      <point x="15" y="35"/>
      <point x="22" y="48"/>
      <point x="33" y="52" type="curve" smooth="yes"/>
      <point x="78" y="68" type="line"/>
    </contour>
  </outline>
</glyph>
<glyph name="uni0652" format="2">
  <unicode hex="0652"/>
  <anchor x="0" y="0" name="_markAbove"/>
  <anchor x="0" y="0" name="_markAboveDot"/>
  <outline>
    <contour>
      <point x="-104" y="73" type="curve" smooth="yes"/>
      <point x="-104" y="131"/>
      <point x="-58" y="178"/>
      <point x="0" y="178" type="curve" smooth="yes"/>
      <point x="58" y="178"/>
      <point x="104" y="131"/>
      <point x="104" y="73" type="curve" smooth="yes"/>
      <point x="104" y="16"/>
      <point x="58" y="-32"/>
      <point x="0" y="-32" type="curve" smooth="yes"/>
      <point x="-58" y="-32"/>
      <point x="-104" y="16"/>
    </contour>
    <contour>
      <point x="-60" y="73" type="curve" smooth="yes"/>
      <point x="-60" y="40"/>
      <point x="-34" y="13"/>
      <point x="0" y="13" type="curve" smooth="yes"/>
      <point x="34" y="13"/>
      <point x="60" y="40"/>
      <point x="60" y="73" type="curve" smooth="yes"/>
      <point x="60" y="107"/>
      <point x="34" y="133"/>
      <point x="0" y="133" type="curve" smooth="yes"/>
      <point x="-34" y="133"/>
      <point x="-60" y="107"/>
    </contour>
  </outline>
</glyph>
<glyph name="uni0653" format="2">
  <unicode hex="0653"/>
  <anchor x="0" y="0" name="_hamzaAbove"/>
  <outline>
    <contour>
      <point x="-111" y="-16" type="line"/>
      <point x="-167" y="-16" type="line"/>
      <point x="-167" y="37" type="line" smooth="yes"/>
      <point x="-167" y="76"/>
      <point x="-138" y="102"/>
      <point x="-100" y="102" type="curve" smooth="yes"/>
      <point x="139" y="102" type="line"/>
      <point x="139" y="46" type="line"/>
      <point x="-115" y="46" type="line" smooth="yes"/>
      <point x="-118" y="50"/>
      <point x="-115" y="52"/>
      <point x="-111" y="51" type="curve" smooth="yes"/>
    </contour>
  </outline>
</glyph>
<glyph name="noonghunnaabove-ar" format="2">
  <unicode hex="0658"/>
  <anchor x="0" y="0" name="_markAbove"/>
  <anchor x="0" y="0" name="_markAboveDot"/>
  <outline>
    <contour>
      <point x="-104" y="73" type="curve"/>
      <point x="-104" y="112" type="line"/>
      <point x="-60" y="112" type="line"/>
      <point x="-60" y="73" type="line"/>
      <point x="-60" y="40"/>
      <point x="-34" y="13"/>
      <point x="0" y="13" type="curve" smooth="yes"/>
      <point x="34" y="13"/>
      <point x="60" y="40"/>
      <point x="60" y="73" type="curve"/>
      <point x="104" y="73" type="line"/>
      <point x="104" y="16"/>
      <point x="58" y="-32"/>
      <point x="0" y="-32" type="curve" smooth="yes"/>
      <point x="-58" y="-32"/>
      <point x="-104" y="16"/>
    </contour>
  </outline>
</glyph>
<glyph name="uni0658" format="2">
  <unicode hex="0658"/>
  <anchor x="0" y="0" name="_markAbove"/>
  <anchor x="0" y="0" name="_markAboveDot"/>
  <outline>
    <contour>
      <point x="-104.0" y="73.0" type="curve"/>
      <point x="-104.0" y="112.0" type="line"/>
      <point x="-60.0" y="112.0" type="line"/>
      <point x="-60.0" y="73.0" type="line"/>
      <point x="-60.0" y="40.0"/>
      <point x="-34.0" y="13.0"/>
      <point x="0.0" y="13.0" type="curve" smooth="yes"/>
      <point x="34.0" y="13.0"/>
      <point x="60.0" y="40.0"/>
      <point x="60.0" y="73.0" type="curve"/>
      <point x="104.0" y="73.0" type="line"/>
      <point x="104.0" y="16.0"/>
      <point x="58.0" y="-32.0"/>
      <point x="0.0" y="-32.0" type="curve" smooth="yes"/>
      <point x="-58.0" y="-32.0"/>
      <point x="-104.0" y="16.0"/>
    </contour>
  </outline>
</glyph>
<glyph name="fathaHorizont-ar" format="2">
  <unicode hex="0659"/>
  <anchor x="0" y="0" name="_markAbove"/>
  <anchor x="0" y="0" name="_markAboveDot"/>
  <outline>
    <contour>
      <point x="-128.752" y="42.038" type="curve" smooth="yes"/>
      <point x="-128.467" y="54.34"/>
      <point x="-118.321" y="64.504"/>
      <point x="-105.677" y="64.501" type="curve" smooth="yes"/>
      <point x="105.007" y="64.439" type="line" smooth="yes"/>
      <point x="117.652" y="64.435"/>
      <point x="129.097" y="55.606"/>
      <point x="128.752" y="42.962" type="curve" smooth="yes"/>
      <point x="128.414" y="30.597"/>
      <point x="118.325" y="20.49"/>
      <point x="106.019" y="20.439" type="curve" smooth="yes"/>
      <point x="-105.007" y="19.561" type="line" smooth="yes"/>
      <point x="-117.662" y="19.509"/>
      <point x="-129.045" y="29.392"/>
    </contour>
  </outline>
</glyph>
<glyph name="uni0659" format="2">
  <unicode hex="0659"/>
  <anchor x="0" y="0" name="_markAbove"/>
  <anchor x="0" y="0" name="_markAboveDot"/>
  <outline>
    <contour>
      <point x="-128.75169342142433" y="42.03796202782595" type="curve" smooth="yes"/>
      <point x="-128.46652956387402" y="54.340333907233855"/>
      <point x="-118.32102081816936" y="64.50449395178634"/>
      <point x="-105.67741257397722" y="64.50076602405792" type="curve" smooth="yes"/>
      <point x="105.00717666108079" y="64.43864634216094" type="line" smooth="yes"/>
      <point x="117.65225913926236" y="64.4349179797593"/>
      <point x="129.09716465818875" y="55.60642999490763"/>
      <point x="128.75169342142433" y="42.96203797217406" type="curve" smooth="yes"/>
      <point x="128.41386388377774" y="30.597335339134435"/>
      <point x="118.3245645031799" y="20.49009858255743"/>
      <point x="106.01943271730289" y="20.43892659672798" type="curve" smooth="yes"/>
      <point x="-105.00717666108078" y="19.561353657839074" type="line" smooth="yes"/>
      <point x="-117.66238892045823" y="19.508725831199396"/>
      <point x="-129.04481580334001" y="29.392248158327682"/>
    </contour>
  </outline>
</glyph>
<glyph name="vabove-ar" format="2">
  <unicode hex="065A"/>
  <anchor x="0" y="41" name="_dotAbove"/>
  <anchor x="0" y="41" name="_markAbove"/>
  <anchor x="0" y="41" name="_markAboveDot"/>
  <anchor x="0" y="250" name="markAbove"/>
  <outline>
    <contour>
      <point x="-41" y="0" type="line"/>
      <point x="41" y="0" type="line"/>
      <point x="155" y="140" type="line"/>
      <point x="120" y="172" type="line"/>
      <point x="2" y="59" type="line"/>
      <point x="-2" y="59" type="line"/>
      <point x="-120" y="172" type="line"/>
      <point x="-155" y="140" type="line"/>
    </contour>
  </outline>
</glyph>
<glyph name="uni065B" format="2">
  <unicode hex="065B"/>
  <anchor x="0" y="41" name="_dotAbove"/>
  <anchor x="0" y="41" name="_markAbove"/>
  <anchor x="0" y="41" name="_markAboveDot"/>
  <anchor x="0" y="250" name="markAbove"/>
  <outline>
    <contour>
      <point x="-155" y="32" type="line"/>
      <point x="-120" y="0" type="line"/>
      <point x="-2" y="113" type="line"/>
      <point x="2" y="113" type="line"/>
      <point x="120" y="0" type="line"/>
      <point x="155" y="32" type="line"/>
      <point x="41" y="171" type="line"/>
      <point x="-41" y="171" type="line"/>
    </contour>
  </outline>
</glyph>
<glyph name="uni0660" format="2">
  <advance width="350"/>
  <unicode hex="0660"/>
  <outline>
    <contour>
      <point x="100.0" y="329.0" type="curve" smooth="yes"/>
      <point x="100.0" y="370.400390625"/>
      <point x="133.599609375" y="404.0"/>
      <point x="175.0" y="404.0" type="curve" smooth="yes"/>
      <point x="216.400390625" y="404.0"/>
      <point x="250.0" y="370.400390625"/>
      <point x="250.0" y="329.0" type="curve" smooth="yes"/>
      <point x="250.0" y="287.599609375"/>
      <point x="216.400390625" y="254.0"/>
      <point x="175.0" y="254.0" type="curve" smooth="yes"/>
      <point x="133.599609375" y="254.0"/>
      <point x="100.0" y="287.599609375"/>
    </contour>
  </outline>
</glyph>
<glyph name="uni0661" format="2">
  <advance width="271"/>
  <unicode hex="0661"/>
  <outline>
    <contour>
      <point x="96" y="646" type="line"/>
      <point x="175" y="646" type="line"/>
      <point x="175" y="0" type="line"/>
      <point x="96" y="0" type="line"/>
    </contour>
  </outline>
</glyph>
<glyph name="two-ar" format="2">
  <advance width="380"/>
  <unicode hex="0662"/>
  <outline>
    <contour>
      <point x="121" y="0" type="line"/>
      <point x="43" y="0" type="line"/>
      <point x="43" y="553" type="line" smooth="yes"/>
      <point x="43" y="606"/>
      <point x="85" y="645"/>
      <point x="135" y="645" type="curve" smooth="yes"/>
      <point x="338" y="645" type="line"/>
      <point x="338" y="566" type="line"/>
      <point x="111" y="566" type="line"/>
      <point x="114.5" y="569.5"/>
      <point x="117.5" y="572.5"/>
      <point x="121" y="576" type="curve"/>
    </contour>
  </outline>
</glyph>
<glyph name="uni0662" format="2">
  <advance width="350"/>
  <unicode hex="0662"/>
  <outline>
    <contour>
      <point x="121" y="0" type="line"/>
      <point x="43" y="0" type="line"/>
      <point x="43" y="553" type="line" smooth="yes"/>
      <point x="43" y="606"/>
      <point x="85" y="645"/>
      <point x="135" y="645" type="curve" smooth="yes"/>
      <point x="308" y="645" type="line"/>
      <point x="308" y="566" type="line"/>
      <point x="122" y="566" type="line" smooth="yes"/>
      <point x="119" y="571"/>
      <point x="117" y="570"/>
      <point x="121" y="566" type="curve" smooth="yes"/>
    </contour>
  </outline>
</glyph>
<glyph name="uni0663" format="2">
  <advance width="531"/>
  <unicode hex="0663"/>
  <outline>
    <contour>
      <point x="43" y="647" type="line"/>
      <point x="121" y="647" type="line"/>
      <point x="121" y="0" type="line"/>
      <point x="43" y="0" type="line"/>
    </contour>
    <contour>
      <point x="226" y="647" type="line"/>
      <point x="305" y="647" type="line"/>
      <point x="305" y="477" type="line" smooth="yes"/>
      <point x="305" y="425"/>
      <point x="263" y="386"/>
      <point x="212" y="386" type="curve" smooth="yes"/>
      <point x="114" y="386" type="line"/>
      <point x="114" y="465" type="line"/>
      <point x="225" y="465" type="line" smooth="yes"/>
      <point x="234" y="465"/>
      <point x="226" y="457"/>
      <point x="226" y="464" type="curve" smooth="yes"/>
    </contour>
    <contour>
      <point x="410" y="647" type="line"/>
      <point x="489" y="647" type="line"/>
      <point x="489" y="477" type="line" smooth="yes"/>
      <point x="489" y="425"/>
      <point x="447" y="386"/>
      <point x="396" y="386" type="curve" smooth="yes"/>
      <point x="300" y="386" type="line"/>
      <point x="300" y="465" type="line"/>
      <point x="409" y="465" type="line" smooth="yes"/>
      <point x="418" y="465"/>
      <point x="410" y="457"/>
      <point x="410" y="464" type="curve" smooth="yes"/>
    </contour>
  </outline>
</glyph>
<glyph name="four-ar" format="2">
  <advance width="436"/>
  <unicode hex="0664"/>
  <outline>
    <contour>
      <point x="261" y="627" type="line"/>
      <point x="307" y="563" type="line"/>
      <point x="139" y="439" type="line"/>
      <point x="137.95" y="441.8"/>
      <point x="137.05" y="444.2"/>
      <point x="136" y="447" type="curve"/>
      <point x="261" y="361" type="line" smooth="yes"/>
      <point x="287.052" y="343.076"/>
      <point x="285.975" y="311.017"/>
      <point x="270" y="288" type="curve" smooth="yes"/>
      <point x="118" y="69" type="line"/>
      <point x="118" y="72.5"/>
      <point x="118" y="75.5"/>
      <point x="118" y="79" type="curve"/>
      <point x="394" y="78" type="line"/>
      <point x="394" y="0" type="line"/>
      <point x="111" y="1" type="line" smooth="yes"/>
      <point x="75" y="1"/>
      <point x="43" y="27"/>
      <point x="43" y="62" type="curve" smooth="yes"/>
      <point x="43" y="102"/>
      <point x="67" y="134"/>
      <point x="81" y="153" type="curve" smooth="yes"/>
      <point x="192" y="313" type="line"/>
      <point x="97" y="379" type="line" smooth="yes"/>
      <point x="36" y="420"/>
      <point x="55" y="475"/>
      <point x="104" y="511" type="curve" smooth="yes"/>
    </contour>
  </outline>
</glyph>
<glyph name="uni0664" format="2">
  <advance width="436"/>
  <unicode hex="0664"/>
  <outline>
    <contour>
      <point x="261" y="627" type="line"/>
      <point x="307" y="563" type="line"/>
      <point x="146" y="444" type="line" smooth="yes"/>
      <point x="140" y="444"/>
      <point x="134" y="444"/>
      <point x="143" y="442" type="curve" smooth="yes"/>
      <point x="261" y="361" type="line" smooth="yes"/>
      <point x="287" y="343"/>
      <point x="286" y="311"/>
      <point x="270" y="288" type="curve" smooth="yes"/>
      <point x="136" y="95" type="line" smooth="yes"/>
      <point x="128" y="89"/>
      <point x="117" y="76"/>
      <point x="128" y="79" type="curve" smooth="yes"/>
      <point x="394" y="78" type="line"/>
      <point x="394" y="0" type="line"/>
      <point x="111" y="1" type="line" smooth="yes"/>
      <point x="75" y="1"/>
      <point x="43" y="27"/>
      <point x="43" y="62" type="curve" smooth="yes"/>
      <point x="43" y="102"/>
      <point x="67" y="134"/>
      <point x="81" y="153" type="curve" smooth="yes"/>
      <point x="192" y="313" type="line"/>
      <point x="97" y="379" type="line" smooth="yes"/>
      <point x="36" y="420"/>
      <point x="55" y="475"/>
      <point x="104" y="511" type="curve" smooth="yes"/>
    </contour>
  </outline>
</glyph>
<glyph name="uni0665" format="2">
  <advance width="535"/>
  <unicode hex="0665"/>
  <outline>
    <contour>
      <point x="346" y="588" type="curve" smooth="yes"/>
      <point x="432" y="534"/>
      <point x="492" y="379"/>
      <point x="493" y="243" type="curve" smooth="yes"/>
      <point x="494" y="119"/>
      <point x="442" y="-12"/>
      <point x="270" y="-12" type="curve" smooth="yes"/>
      <point x="104" y="-13"/>
      <point x="40" y="100"/>
      <point x="43" y="251" type="curve" smooth="yes"/>
      <point x="45" y="387"/>
      <point x="110" y="534"/>
      <point x="186" y="584" type="curve" smooth="yes"/>
      <point x="236" y="616"/>
      <point x="296" y="618"/>
    </contour>
    <contour>
      <point x="305" y="520" type="curve" smooth="yes"/>
      <point x="280" y="536"/>
      <point x="256" y="536"/>
      <point x="229" y="518" type="curve" smooth="yes"/>
      <point x="180" y="486"/>
      <point x="128" y="358"/>
      <point x="125" y="247" type="curve" smooth="yes"/>
      <point x="121" y="141"/>
      <point x="160" y="66"/>
      <point x="269" y="66" type="curve" smooth="yes"/>
      <point x="378" y="66"/>
      <point x="415" y="139"/>
      <point x="415" y="243" type="curve" smooth="yes"/>
      <point x="414" y="361"/>
      <point x="351" y="492"/>
    </contour>
  </outline>
</glyph>
<glyph name="uni0666" format="2">
  <advance width="444"/>
  <unicode hex="0666"/>
  <outline>
    <contour>
      <point x="43" y="566" type="line"/>
      <point x="43" y="644" type="line"/>
      <point x="309" y="644" type="line" smooth="yes"/>
      <point x="359" y="644"/>
      <point x="401" y="605"/>
      <point x="401" y="553" type="curve" smooth="yes"/>
      <point x="401" y="0" type="line"/>
      <point x="323" y="0" type="line"/>
      <point x="323" y="565" type="line" smooth="yes"/>
      <point x="327" y="569"/>
      <point x="325" y="571"/>
      <point x="322" y="566" type="curve" smooth="yes"/>
    </contour>
  </outline>
</glyph>
<glyph name="uni0667" format="2">
  <advance width="548"/>
  <unicode hex="0667"/>
  <outline>
    <contour>
      <point x="430" y="639" type="line"/>
      <point x="506" y="619" type="line"/>
      <point x="355" y="41" type="line" smooth="yes"/>
      <point x="348" y="15"/>
      <point x="324" y="-4"/>
      <point x="291" y="-5" type="curve" smooth="yes"/>
      <point x="265" y="-5"/>
      <point x="237" y="11"/>
      <point x="228" y="40" type="curve" smooth="yes"/>
      <point x="43" y="617" type="line"/>
      <point x="118" y="641" type="line"/>
      <point x="293" y="94" type="line"/>
      <point x="289" y="92"/>
      <point x="292" y="92"/>
      <point x="288" y="94" type="curve"/>
    </contour>
  </outline>
</glyph>
<glyph name="uni0669" format="2">
  <advance width="443"/>
  <unicode hex="0669"/>
  <outline>
    <contour>
      <point x="348" y="300" type="line"/>
      <point x="257" y="300"/>
      <point x="135" y="275"/>
      <point x="70" y="376" type="curve" smooth="yes"/>
      <point x="11" y="470"/>
      <point x="54" y="580"/>
      <point x="126" y="621" type="curve"/>
      <point x="192" y="665"/>
      <point x="317" y="662"/>
      <point x="375" y="573" type="curve" smooth="yes"/>
      <point x="392" y="548"/>
      <point x="401" y="515"/>
      <point x="401" y="479" type="curve" smooth="yes"/>
      <point x="401" y="0" type="line"/>
      <point x="323" y="0" type="line"/>
      <point x="323" y="479" type="line" smooth="yes"/>
      <point x="323" y="503"/>
      <point x="317" y="519"/>
      <point x="308" y="532" type="curve" smooth="yes"/>
      <point x="278" y="576"/>
      <point x="202" y="576"/>
      <point x="167" y="554" type="curve" smooth="yes"/>
      <point x="132" y="535"/>
      <point x="103" y="476"/>
      <point x="137" y="418" type="curve"/>
      <point x="175" y="365"/>
      <point x="240" y="379"/>
      <point x="348" y="379" type="curve"/>
    </contour>
  </outline>
</glyph>
<glyph name="percent-ar" format="2">
  <advance width="513"/>
  <unicode hex="066A"/>
  <outline>
    <contour>
      <point x="40" y="-12" type="line"/>
      <point x="403" y="669" type="line"/>
      <point x="473" y="669" type="line"/>
      <point x="110" y="-12" type="line"/>
    </contour>
    <component base="zero-ar" xOffset="-61" yOffset="279"/>
    <component base="zero-ar" xOffset="260" yOffset="-280"/>
  </outline>
</glyph>
<glyph name="uni066A" format="2">
  <advance width="513"/>
  <unicode hex="066A"/>
  <outline>
    <contour>
      <point x="40" y="-12" type="line"/>
      <point x="403" y="669" type="line"/>
      <point x="473" y="669" type="line"/>
      <point x="110" y="-12" type="line"/>
    </contour>
    <component base="uni0660" xOffset="-61" yOffset="279"/>
    <component base="uni0660" xOffset="260" yOffset="-280"/>
  </outline>
</glyph>
<glyph name="decimalseparator-ar" format="2">
  <advance width="300"/>
  <unicode hex="066B"/>
  <outline>
    <contour>
      <point x="181" y="91" type="line"/>
      <point x="240" y="91" type="line"/>
      <point x="240" y="-35" type="line" smooth="yes"/>
      <point x="240" y="-94"/>
      <point x="198" y="-153"/>
      <point x="126" y="-153" type="curve" smooth="yes"/>
      <point x="60" y="-153" type="line"/>
      <point x="60" y="-95" type="line"/>
      <point x="126" y="-95" type="line" smooth="yes"/>
      <point x="160" y="-95"/>
      <point x="181" y="-71"/>
      <point x="181" y="-35" type="curve" smooth="yes"/>
    </contour>
  </outline>
</glyph>
<glyph name="uni066B" format="2">
  <advance width="300.0"/>
  <unicode hex="066B"/>
  <outline>
    <contour>
      <point x="181.0" y="91" type="line"/>
      <point x="240.0" y="91" type="line"/>
      <point x="240.0" y="-35" type="line" smooth="yes"/>
      <point x="240.0" y="-94"/>
      <point x="198.0" y="-153"/>
      <point x="126.0" y="-153" type="curve" smooth="yes"/>
      <point x="60.0" y="-153" type="line"/>
      <point x="60.0" y="-95" type="line"/>
      <point x="126.0" y="-95" type="line" smooth="yes"/>
      <point x="160.0" y="-95"/>
      <point x="181.0" y="-71"/>
      <point x="181.0" y="-35" type="curve" smooth="yes"/>
    </contour>
  </outline>
</glyph>
<glyph name="behDotless-ar" format="2">
  <advance width="733"/>
  <unicode hex="066E"/>
  <anchor x="366" y="394" name="dotAbove"/>
  <anchor x="386" y="-149" name="dotBelow"/>
  <anchor x="366" y="431" name="hamzaAbove"/>
  <anchor x="386" y="-149" name="hamzaBelow"/>
  <anchor x="366" y="431" name="markAbove"/>
  <anchor x="386" y="-176" name="markBelow"/>
  <anchor x="386" y="0" name="ringBelow"/>
  <outline>
    <contour>
      <point x="608" y="287" type="line"/>
      <point x="687" y="287" type="line"/>
      <point x="687" y="92" type="line" smooth="yes"/>
      <point x="687" y="42"/>
      <point x="645" y="0"/>
      <point x="596" y="0" type="curve" smooth="yes"/>
      <point x="204" y="0" type="line" smooth="yes"/>
      <point x="123" y="0"/>
      <point x="46" y="61"/>
      <point x="46" y="147" type="curve" smooth="yes"/>
      <point x="46" y="287" type="line"/>
      <point x="125" y="287" type="line"/>
      <point x="125" y="147" type="line" smooth="yes"/>
      <point x="125" y="112"/>
      <point x="159" y="79"/>
      <point x="204" y="79" type="curve" smooth="yes"/>
      <point x="618" y="79" type="line"/>
      <point x="614.5" y="75.5"/>
      <point x="611.5" y="72.5"/>
      <point x="608" y="69" type="curve"/>
    </contour>
  </outline>
</glyph>
<glyph name="qafDotless-ar" format="2">
  <advance width="747"/>
  <unicode hex="066F"/>
  <anchor x="521" y="469" name="dotAbove"/>
  <anchor x="400" y="-299" name="dotBelow"/>
  <anchor x="521" y="505" name="markAbove"/>
  <anchor x="400" y="-325" name="markBelow"/>
  <outline>
    <contour>
      <point x="661" y="15" type="line"/>
      <point x="559" y="8"/>
      <point x="431" y="-17"/>
      <point x="370" y="84" type="curve" smooth="yes"/>
      <point x="317" y="172"/>
      <point x="362" y="276"/>
      <point x="426" y="318" type="curve" smooth="yes"/>
      <point x="498" y="363"/>
      <point x="620" y="358"/>
      <point x="676" y="270" type="curve" smooth="yes"/>
      <point x="692" y="244"/>
      <point x="701" y="213"/>
      <point x="701" y="178" type="curve" smooth="yes"/>
      <point x="701" y="-106" type="line" smooth="yes"/>
      <point x="701" y="-154"/>
      <point x="662" y="-200"/>
      <point x="606" y="-200" type="curve" smooth="yes"/>
      <point x="184" y="-200" type="line" smooth="yes"/>
      <point x="110" y="-200"/>
      <point x="46" y="-147"/>
      <point x="46" y="-66" type="curve" smooth="yes"/>
      <point x="46" y="176" type="line"/>
      <point x="125" y="176" type="line"/>
      <point x="125" y="-66" type="line" smooth="yes"/>
      <point x="125" y="-101"/>
      <point x="145" y="-120"/>
      <point x="184" y="-120" type="curve" smooth="yes"/>
      <point x="632" y="-120" type="line"/>
      <point x="628.5" y="-123.5"/>
      <point x="625.5" y="-126.5"/>
      <point x="622" y="-130" type="curve"/>
      <point x="622" y="178" type="line" smooth="yes"/>
      <point x="622" y="211"/>
      <point x="604" y="236"/>
      <point x="579" y="248" type="curve" smooth="yes"/>
      <point x="552" y="272"/>
      <point x="503" y="273"/>
      <point x="469" y="252" type="curve" smooth="yes"/>
      <point x="435" y="230"/>
      <point x="410" y="168"/>
      <point x="437" y="124" type="curve" smooth="yes"/>
      <point x="470" y="69"/>
      <point x="514" y="66"/>
      <point x="661" y="75" type="curve"/>
    </contour>
  </outline>
</glyph>
<glyph name="alefabove-ar" format="2">
  <unicode hex="0670"/>
  <anchor x="0" y="0" name="_markAbove"/>
  <anchor x="0" y="0" name="_markAboveDot"/>
  <outline>
    <contour>
      <point x="-30" y="0" type="curve"/>
      <point x="-30" y="180" type="line"/>
      <point x="29" y="180" type="line"/>
      <point x="29" y="49" type="line" smooth="yes"/>
      <point x="29" y="24"/>
      <point x="0" y="0"/>
    </contour>
  </outline>
</glyph>
<glyph name="uni0670" format="2">
  <unicode hex="0670"/>
  <anchor x="0" y="0" name="_markAbove"/>
  <anchor x="0" y="0" name="_markAboveDot"/>
  <outline>
    <contour>
      <point x="-22" y="0" type="curve"/>
      <point x="-22" y="180" type="line"/>
      <point x="22" y="180" type="line"/>
      <point x="22" y="39" type="line" smooth="yes"/>
      <point x="22" y="28"/>
      <point x="8" y="0"/>
    </contour>
  </outline>
</glyph>
<glyph name="yehbarree-ar" format="2">
  <advance width="925"/>
  <unicode hex="06D2"/>
  <anchor x="413" y="383" name="dotAbove"/>
  <anchor x="473" y="-297" name="dotBelow"/>
  <anchor x="413" y="383" name="hamzaAbove"/>
  <anchor x="413" y="383" name="kafAbove"/>
  <anchor x="413" y="420" name="markAbove"/>
  <anchor x="473" y="-323" name="markBelow"/>
  <outline>
    <contour>
      <point x="557" y="240" type="curve"/>
      <point x="515" y="174" type="line"/>
      <point x="464" y="206"/>
      <point x="384" y="234"/>
      <point x="330" y="158" type="curve" smooth="yes"/>
      <point x="321" y="144"/>
      <point x="309" y="64"/>
      <point x="187" y="32" type="curve" smooth="yes"/>
      <point x="139" y="19"/>
      <point x="119" y="-24"/>
      <point x="127" y="-57" type="curve" smooth="yes"/>
      <point x="134" y="-84"/>
      <point x="163" y="-118"/>
      <point x="253" y="-118" type="curve" smooth="yes"/>
      <point x="879" y="-118" type="line"/>
      <point x="879" y="-198" type="line"/>
      <point x="253" y="-198" type="line" smooth="yes"/>
      <point x="142" y="-198"/>
      <point x="70" y="-148"/>
      <point x="51" y="-77" type="curve" smooth="yes"/>
      <point x="30" y="2"/>
      <point x="80" y="85"/>
      <point x="167" y="108" type="curve" smooth="yes"/>
      <point x="264" y="134"/>
      <point x="229" y="148"/>
      <point x="267" y="202" type="curve" smooth="yes"/>
      <point x="359" y="334"/>
      <point x="500" y="276"/>
    </contour>
  </outline>
</glyph>
<glyph name="fullstop-ar" format="2">
  <advance width="342"/>
  <unicode hex="06D4"/>
  <outline>
    <contour>
      <point x="130" y="79" type="line"/>
      <point x="276" y="79" type="line"/>
      <point x="212" y="0" type="line"/>
      <point x="65" y="0" type="line"/>
    </contour>
  </outline>
</glyph>
<glyph name="uni06F4" format="2">
  <advance width="531"/>
  <unicode hex="06F4"/>
  <outline>
    <contour>
      <point x="312" y="386" type="line"/>
      <point x="234" y="386" type="line"/>
      <point x="234" y="531" type="line" smooth="yes"/>
      <point x="232" y="597"/>
      <point x="286" y="647"/>
      <point x="352" y="647" type="curve" smooth="yes"/>
      <point x="425" y="647" type="line"/>
      <point x="425" y="568" type="line"/>
      <point x="339" y="568" type="line" smooth="yes"/>
      <point x="316" y="568"/>
      <point x="312" y="565"/>
      <point x="312" y="543" type="curve" smooth="yes"/>
    </contour>
    <contour>
      <point x="43" y="647" type="line"/>
      <point x="121" y="647" type="line"/>
      <point x="121" y="0" type="line"/>
      <point x="43" y="0" type="line"/>
    </contour>
    <contour>
      <point x="439" y="386" type="line"/>
      <point x="114" y="386" type="line"/>
      <point x="114" y="465" type="line"/>
      <point x="439" y="465" type="line"/>
    </contour>
  </outline>
</glyph>
<glyph name="uni06F5" format="2">
  <advance width="535"/>
  <unicode hex="06F5"/>
  <outline>
    <contour>
      <point x="346" y="588" type="curve" smooth="yes"/>
      <point x="432" y="534"/>
      <point x="492" y="379"/>
      <point x="493" y="243" type="curve" smooth="yes"/>
      <point x="494" y="146"/>
      <point x="462" y="0"/>
      <point x="364" y="0" type="curve" smooth="yes"/>
      <point x="338" y="0"/>
      <point x="306" y="11"/>
      <point x="270" y="37" type="curve"/>
      <point x="231" y="10"/>
      <point x="198" y="1"/>
      <point x="170" y="0" type="curve" smooth="yes"/>
      <point x="78" y="0"/>
      <point x="41" y="135"/>
      <point x="43" y="251" type="curve" smooth="yes"/>
      <point x="45" y="387"/>
      <point x="110" y="534"/>
      <point x="186" y="584" type="curve" smooth="yes"/>
      <point x="236" y="616"/>
      <point x="296" y="618"/>
    </contour>
    <contour>
      <point x="305" y="520" type="curve" smooth="yes"/>
      <point x="280" y="536"/>
      <point x="256" y="536"/>
      <point x="229" y="518" type="curve" smooth="yes"/>
      <point x="180" y="486"/>
      <point x="128" y="358"/>
      <point x="125" y="247" type="curve" smooth="yes"/>
      <point x="122" y="174"/>
      <point x="140" y="95"/>
      <point x="188" y="84" type="curve" smooth="yes"/>
      <point x="209" y="79"/>
      <point x="236" y="89"/>
      <point x="269" y="116" type="curve"/>
      <point x="301" y="91"/>
      <point x="327" y="82"/>
      <point x="347" y="85" type="curve" smooth="yes"/>
      <point x="397" y="92"/>
      <point x="415" y="169"/>
      <point x="415" y="243" type="curve" smooth="yes"/>
      <point x="414" y="361"/>
      <point x="351" y="492"/>
    </contour>
  </outline>
</glyph>
<glyph name="six-persian" format="2">
  <advance width="458"/>
  <unicode hex="06F6"/>
  <outline>
    <contour>
      <point x="405" y="375" type="line"/>
      <point x="86" y="4" type="line"/>
      <point x="67" y="14"/>
      <point x="51" y="37"/>
      <point x="55" y="63" type="curve" smooth="yes"/>
      <point x="61" y="100"/>
      <point x="87" y="125"/>
      <point x="102" y="142" type="curve" smooth="yes"/>
      <point x="335" y="416" type="line"/>
    </contour>
    <contour>
      <point x="370" y="571" type="curve"/>
      <point x="349" y="494" type="line"/>
      <point x="332" y="499"/>
      <point x="317" y="503"/>
      <point x="304" y="505" type="curve" smooth="yes"/>
      <point x="244" y="514"/>
      <point x="210" y="500"/>
      <point x="201" y="489" type="curve" smooth="yes"/>
      <point x="191" y="478"/>
      <point x="182" y="431"/>
      <point x="282" y="347" type="curve"/>
      <point x="230" y="286" type="line"/>
      <point x="129" y="371"/>
      <point x="82" y="470"/>
      <point x="141" y="539" type="curve" smooth="yes"/>
      <point x="178" y="583"/>
      <point x="244" y="593"/>
      <point x="315" y="582" type="curve" smooth="yes"/>
      <point x="333" y="580"/>
      <point x="351" y="575"/>
    </contour>
  </outline>
</glyph>
<glyph name="uni076C" format="2">
  <advance width="1000"/>
  <unicode hex="076C"/>
  <outline>
    <contour>
      <point x="0" y="-200" type="line"/>
      <point x="0" y="800" type="line"/>
      <point x="1000" y="800" type="line"/>
      <point x="1000" y="-200" type="line"/>
    </contour>
  </outline>
</glyph>
<glyph name="alef-ar.fina.1.short" format="2">
  <advance width="212.92792"/>
  <anchor x="150" y="457" name="hamzaAbove"/>
  <anchor x="92" y="-126" name="markBelow"/>
  <outline>
    <contour>
      <point x="108" y="476" type="line"/>
      <point x="181" y="502" type="line"/>
      <point x="286" y="254" type="line"/>
      <point x="290" y="240"/>
      <point x="287" y="226"/>
      <point x="284" y="214" type="curve" smooth="yes"/>
      <point x="271" y="163"/>
      <point x="217" y="107"/>
      <point x="138" y="66" type="curve"/>
      <point x="77" y="66" type="line"/>
      <point x="130" y="93"/>
      <point x="209" y="140"/>
      <point x="209" y="239" type="curve"/>
    </contour>
  </outline>
</glyph>
<glyph name="alef-ar.short" format="2">
  <advance width="200"/>
  <anchor x="99" y="457" name="hamzaAbove"/>
  <anchor x="99" y="-53" name="markBelow"/>
  <outline>
    <contour>
      <point x="61" y="457" type="line"/>
      <point x="139" y="457" type="line"/>
      <point x="139" y="82" type="line" smooth="yes"/>
      <point x="139" y="37"/>
      <point x="111" y="0"/>
      <point x="61" y="0" type="curve"/>
    </contour>
  </outline>
</glyph>
<glyph name="ar1Dot.above" format="2">
  <anchor x="0" y="0" name="_dotAbove"/>
  <anchor x="0" y="140" name="markAboveDot"/>
  <outline>
    <contour>
      <point x="-42" y="0" type="curve" smooth="yes"/>
      <point x="-42" y="24"/>
      <point x="-24" y="42"/>
      <point x="0" y="42" type="curve" smooth="yes"/>
      <point x="24" y="42"/>
      <point x="42" y="24"/>
      <point x="42" y="0" type="curve" smooth="yes"/>
      <point x="42" y="-24"/>
      <point x="24" y="-42"/>
      <point x="0" y="-42" type="curve" smooth="yes"/>
      <point x="-24" y="-42"/>
      <point x="-42" y="-24"/>
    </contour>
  </outline>
</glyph>
<glyph name="arAin.init" format="2">
  <advance width="514"/>
  <anchor x="254" y="-149" name="dotBelow"/>
  <anchor x="254" y="-176" name="markBelow"/>
  <anchor x="253" y="482" name="dotAbove"/>
  <anchor x="253" y="519" name="markAbove"/>
  <outline>
    <contour>
      <point x="0" y="0" type="line"/>
      <point x="0" y="79" type="line"/>
      <point x="468" y="79" type="line"/>
      <point x="468" y="0" type="line"/>
      <point x="305.8627776879176" y="0.0" type="line"/>
      <point x="288.5780731734899" y="0.0"/>
      <point x="276.4231871331188" y="13.316936688221514"/>
      <point x="249.4899053435975" y="13.0" type="curve" smooth="yes"/>
      <point x="222.18182410611738" y="12.67865286908864"/>
      <point x="209.0" y="0.0"/>
      <point x="192.05035742101012" y="0.0" type="curve"/>
    </contour>
    <contour>
      <point x="429" y="331" type="curve"/>
      <point x="407" y="256" type="line"/>
      <point x="277" y="295"/>
      <point x="205" y="278"/>
      <point x="185" y="258" type="curve" smooth="yes"/>
      <point x="168" y="241"/>
      <point x="163" y="181"/>
      <point x="269" y="79" type="curve"/>
      <point x="213" y="22" type="line"/>
      <point x="108" y="124"/>
      <point x="57" y="238"/>
      <point x="128" y="312" type="curve" smooth="yes"/>
      <point x="186" y="372"/>
      <point x="295" y="372"/>
    </contour>
  </outline>
</glyph>
<glyph name="arAin.isol" format="2">
  <advance width="482"/>
  <outline>
    <contour>
      <point x="432.0" y="-168.0" type="line"/>
      <point x="432.0" y="-273.0" type="line"/>
      <point x="144.0" y="-273.0" type="line" smooth="yes"/>
      <point x="89.0" y="-273.0"/>
      <point x="50.0" y="-226.0"/>
      <point x="50.0" y="-173.0" type="curve" smooth="yes"/>
      <point x="50.0" y="5.0" type="line" smooth="yes"/>
      <point x="50.0" y="58.0"/>
      <point x="89.0" y="105.0"/>
      <point x="146.0" y="105.0" type="curve" smooth="yes"/>
      <point x="432.0" y="105.0" type="line"/>
      <point x="432.0" y="0.0" type="line"/>
      <point x="135.0" y="0.0" type="line"/>
      <point x="155.0" y="20.0" type="line"/>
      <point x="155.0" y="-188.0" type="line"/>
      <point x="135.0" y="-168.0" type="line"/>
    </contour>
    <contour>
      <point x="413.0" y="304.0" type="curve"/>
      <point x="373.0" y="206.0" type="line"/>
      <point x="357.0" y="213.0"/>
      <point x="343.0" y="218.0"/>
      <point x="331.0" y="221.0" type="curve" smooth="yes"/>
      <point x="274.0" y="237.0"/>
      <point x="245.0" y="226.0"/>
      <point x="239.0" y="221.0" type="curve"/>
      <point x="238.0" y="220.0"/>
      <point x="215.0" y="185.0"/>
      <point x="303.0" y="89.0" type="curve"/>
      <point x="225.0" y="17.0" type="line"/>
      <point x="135.0" y="114.0"/>
      <point x="91.0" y="228.0"/>
      <point x="168.0" y="298.0" type="curve" smooth="yes"/>
      <point x="216.0" y="342.0"/>
      <point x="287.0" y="343.0"/>
      <point x="359.0" y="323.0" type="curve" smooth="yes"/>
      <point x="377.0" y="318.0"/>
      <point x="395.0" y="311.0"/>
    </contour>
  </outline>
</glyph>
<glyph name="arAlef.fina.1" format="2">
  <advance width="213"/>
  <anchor x="108" y="723" name="dotAbove"/>
  <anchor x="108" y="760" name="markAbove"/>
  <anchor x="108" y="723" name="hamzaAbove"/>
  <anchor x="92" y="-99" name="dotBelow"/>
  <anchor x="92" y="-126" name="markBelow"/>
  <anchor x="92" y="-99" name="hamzaBelow"/>
  <anchor x="108" y="723" name="kafAbove"/>
  <outline>
    <contour>
      <point x="85" y="635" type="line"/>
      <point x="209" y="239" type="line"/>
      <point x="209" y="140"/>
      <point x="130" y="93"/>
      <point x="77" y="66" type="curve"/>
      <point x="138" y="66" type="line"/>
      <point x="217" y="107"/>
      <point x="271" y="163"/>
      <point x="284" y="214" type="curve" smooth="yes"/>
      <point x="287" y="226"/>
      <point x="290" y="240"/>
      <point x="286" y="254" type="curve"/>
      <point x="160" y="657" type="line"/>
    </contour>
  </outline>
</glyph>
<glyph name="arAlef.fina.1.short" format="2">
  <advance width="212.92792202424783"/>
  <anchor x="92" y="-126" name="markBelow"/>
  <anchor x="150" y="457" name="hamzaAbove"/>
  <outline>
    <contour>
      <point x="108.0" y="476.0" type="line"/>
      <point x="181.0" y="502.0" type="line"/>
      <point x="286.0" y="254.0" type="line"/>
      <point x="290.0" y="240.0"/>
      <point x="287.0" y="226.0"/>
      <point x="284.0" y="214.0" type="curve" smooth="yes"/>
      <point x="271.0" y="163.0"/>
      <point x="217.0" y="107.0"/>
      <point x="138.0" y="66.0" type="curve"/>
      <point x="77.0" y="66.0" type="line"/>
      <point x="130.0" y="93.0"/>
      <point x="209.0" y="140.0"/>
      <point x="209.0" y="239.0" type="curve"/>
    </contour>
  </outline>
</glyph>
<glyph name="arAlef.fina.short" format="2">
  <advance width="257.0"/>
  <anchor x="97" y="457" name="hamzaAbove"/>
  <anchor x="117" y="-53" name="markBelow"/>
  <outline>
    <contour>
      <point x="125" y="457" type="line"/>
      <point x="125" y="69" type="line"/>
      <point x="121.85" y="72.5"/>
      <point x="119.15" y="75.5"/>
      <point x="116" y="79" type="curve"/>
      <point x="273" y="79" type="line"/>
      <point x="273" y="0" type="line"/>
      <point x="139" y="0" type="line" smooth="yes"/>
      <point x="86.0" y="0.0"/>
      <point x="46.0" y="41.0"/>
      <point x="46" y="92" type="curve" smooth="yes"/>
      <point x="46" y="457" type="line"/>
    </contour>
  </outline>
</glyph>
<glyph name="arAlef.isol" format="2">
  <advance width="205"/>
  <outline>
    <contour>
      <point x="50.0" y="624.0" type="line"/>
      <point x="155.0" y="624.0" type="line"/>
      <point x="155.0" y="110.0" type="line" smooth="yes"/>
      <point x="155.0" y="47.0"/>
      <point x="116.0" y="0.0"/>
      <point x="50.0" y="0.0" type="curve"/>
    </contour>
  </outline>
</glyph>
<glyph name="arAlef.isol.short" format="2">
  <advance width="200.0"/>
  <anchor x="99" y="457" name="hamzaAbove"/>
  <anchor x="99" y="-53" name="markBelow"/>
  <outline>
    <contour>
      <point x="61.0" y="457.0" type="line"/>
      <point x="139.0" y="457.0" type="line"/>
      <point x="139.0" y="82.0" type="line" smooth="yes"/>
      <point x="139.0" y="37.0"/>
      <point x="111.0" y="0.0"/>
      <point x="61.0" y="0.0" type="curve"/>
    </contour>
  </outline>
</glyph>
<glyph name="arBeh.init" format="2">
  <advance width="428"/>
  <anchor x="199" y="491" name="dotAbove"/>
  <anchor x="199" y="527" name="markAbove"/>
  <anchor x="199" y="491" name="hamzaAbove"/>
  <anchor x="199" y="-149" name="dotBelow"/>
  <anchor x="199" y="-176" name="markBelow"/>
  <anchor x="199" y="491" name="kafAbove"/>
  <anchor x="199" y="0" name="ringBelow"/>
  <anchor x="199" y="-149" name="hamzaBelow"/>
  <outline>
    <contour>
      <point x="303" y="363" type="line"/>
      <point x="382" y="363" type="line"/>
      <point x="382" y="91" type="line" smooth="yes"/>
      <point x="382" y="39"/>
      <point x="339" y="0"/>
      <point x="289" y="0" type="curve" smooth="yes"/>
      <point x="0" y="0" type="line"/>
      <point x="0" y="79" type="line"/>
      <point x="312" y="79" type="line"/>
      <point x="308.85" y="75.15"/>
      <point x="306.15" y="71.85"/>
      <point x="303" y="68" type="curve"/>
    </contour>
  </outline>
</glyph>
<glyph name="arBeh.isol" format="2">
  <advance width="733"/>
  <anchor x="386" y="-149.0" name="dotBelow"/>
  <anchor x="386" y="-176.0" name="markBelow"/>
  <anchor x="366" y="394" name="dotAbove"/>
  <anchor x="366" y="431" name="markAbove"/>
  <anchor x="386" y="0" name="ringBelow"/>
  <anchor x="366.0" y="431.0" name="hamzaAbove"/>
  <anchor x="386.0" y="-149.0" name="hamzaBelow"/>
  <outline>
    <contour>
      <point x="608" y="287" type="line"/>
      <point x="687" y="287" type="line"/>
      <point x="687" y="92" type="line" smooth="yes"/>
      <point x="687" y="42"/>
      <point x="645" y="0"/>
      <point x="596" y="0" type="curve" smooth="yes"/>
      <point x="204" y="0" type="line" smooth="yes"/>
      <point x="123" y="0"/>
      <point x="46" y="61"/>
      <point x="46" y="147" type="curve" smooth="yes"/>
      <point x="46" y="287" type="line"/>
      <point x="125" y="287" type="line"/>
      <point x="125" y="147" type="line" smooth="yes"/>
      <point x="125" y="112"/>
      <point x="159.0" y="79.0"/>
      <point x="204" y="79" type="curve" smooth="yes"/>
      <point x="618" y="79" type="line"/>
      <point x="614.5" y="75.5"/>
      <point x="611.5" y="72.5"/>
      <point x="608" y="69" type="curve"/>
    </contour>
  </outline>
</glyph>
<glyph name="arDal.isol" format="2">
  <advance width="468"/>
  <anchor x="195" y="444" name="dotAbove"/>
  <anchor x="195" y="481" name="markAbove"/>
  <anchor x="204" y="-98" name="dotBelow"/>
  <anchor x="204" y="-125" name="markBelow"/>
  <anchor x="204" y="0" name="ringBelow"/>
  <outline>
    <contour>
      <point x="159" y="282" type="curve"/>
      <point x="194" y="352" type="line"/>
      <point x="262" y="318"/>
      <point x="401" y="244"/>
      <point x="402" y="91" type="curve" smooth="yes"/>
      <point x="402" y="43"/>
      <point x="366" y="0"/>
      <point x="310" y="0" type="curve" smooth="yes"/>
      <point x="46" y="0" type="line"/>
      <point x="46" y="79" type="line"/>
      <point x="333" y="79" type="line"/>
      <point x="329.5" y="78.65"/>
      <point x="326.5" y="78.35"/>
      <point x="323" y="78" type="curve"/>
      <point x="323" y="192"/>
      <point x="232" y="246"/>
    </contour>
  </outline>
</glyph>
<glyph name="arDamma.above" format="2">
  <anchor x="0" y="0" name="_hamzaAbove"/>
  <anchor x="101" y="0" name="_dammaHamza"/>
  <outline>
    <contour>
      <point x="-30" y="-30" type="line"/>
      <point x="27" y="-4"/>
      <point x="51" y="41"/>
      <point x="51" y="87" type="curve" smooth="yes"/>
      <point x="51" y="132"/>
      <point x="33" y="156"/>
      <point x="1" y="156" type="curve" smooth="yes"/>
      <point x="-21" y="156"/>
      <point x="-40" y="142"/>
      <point x="-40" y="112" type="curve" smooth="yes"/>
      <point x="-40" y="86"/>
      <point x="-18" y="73"/>
      <point x="1" y="73" type="curve" smooth="yes"/>
      <point x="15" y="73"/>
      <point x="25" y="78"/>
      <point x="35" y="90" type="curve"/>
      <point x="-1" y="128" type="line"/>
      <point x="10" y="78" type="line"/>
      <point x="10" y="46"/>
      <point x="-8" y="21"/>
      <point x="-47" y="2" type="curve"/>
    </contour>
  </outline>
</glyph>
<glyph name="arFeh.fina" format="2">
  <advance width="859"/>
  <anchor x="591" y="469" name="dotAbove"/>
  <anchor x="591" y="505" name="markAbove"/>
  <anchor x="401" y="-299" name="dotBelow"/>
  <anchor x="401" y="-325" name="markBelow"/>
  <outline>
    <contour>
      <point x="871" y="79" type="line"/>
      <point x="871" y="0" type="line"/>
      <point x="697" y="0" type="line" smooth="yes"/>
      <point x="586" y="-1"/>
      <point x="496" y="-10"/>
      <point x="440" y="84" type="curve" smooth="yes"/>
      <point x="386" y="172"/>
      <point x="432" y="276"/>
      <point x="496" y="318" type="curve" smooth="yes"/>
      <point x="568" y="363"/>
      <point x="690" y="358"/>
      <point x="746" y="270" type="curve" smooth="yes"/>
      <point x="762" y="244"/>
      <point x="770" y="213"/>
      <point x="770" y="178" type="curve" smooth="yes"/>
      <point x="770" y="-106" type="line" smooth="yes"/>
      <point x="770" y="-154"/>
      <point x="732" y="-200"/>
      <point x="676" y="-200" type="curve" smooth="yes"/>
      <point x="184" y="-200" type="line" smooth="yes"/>
      <point x="110" y="-200"/>
      <point x="46" y="-147"/>
      <point x="46" y="-66" type="curve" smooth="yes"/>
      <point x="46" y="86" type="line"/>
      <point x="124" y="86" type="line"/>
      <point x="124" y="-66" type="line" smooth="yes"/>
      <point x="124" y="-101"/>
      <point x="145.0" y="-120.0"/>
      <point x="184" y="-120" type="curve" smooth="yes"/>
      <point x="702" y="-120" type="line"/>
      <point x="698.5" y="-123.5"/>
      <point x="695.5" y="-126.5"/>
      <point x="692" y="-130" type="curve"/>
      <point x="692" y="178" type="line"/>
      <point x="692" y="207"/>
      <point x="680" y="228"/>
      <point x="662" y="242" type="curve" smooth="yes"/>
      <point x="631" y="272"/>
      <point x="575" y="275"/>
      <point x="538" y="252" type="curve" smooth="yes"/>
      <point x="504" y="230"/>
      <point x="480" y="168"/>
      <point x="507" y="124" type="curve" smooth="yes"/>
      <point x="537" y="74"/>
      <point x="572" y="77"/>
      <point x="695" y="79" type="curve" smooth="yes"/>
    </contour>
  </outline>
</glyph>
<glyph name="arFeh.init" format="2">
  <advance width="493"/>
  <anchor x="267" y="609" name="dotAbove"/>
  <anchor x="267" y="647" name="markAbove"/>
  <anchor x="258" y="-143" name="dotBelow"/>
  <anchor x="258" y="-169" name="markBelow"/>
  <outline>
    <contour>
      <point x="0" y="79" type="line"/>
      <point x="366" y="79" type="line" smooth="yes"/>
      <point x="371" y="74"/>
      <point x="372" y="78"/>
      <point x="367" y="80" type="curve" smooth="yes"/>
      <point x="367" y="318" type="line" smooth="yes"/>
      <point x="367" y="351"/>
      <point x="349" y="376"/>
      <point x="324" y="388" type="curve" smooth="yes"/>
      <point x="297" y="412"/>
      <point x="248" y="413"/>
      <point x="214" y="392" type="curve" smooth="yes"/>
      <point x="180" y="370"/>
      <point x="156" y="308"/>
      <point x="183" y="264" type="curve" smooth="yes"/>
      <point x="216" y="209"/>
      <point x="260" y="206"/>
      <point x="407" y="215" type="curve"/>
      <point x="407" y="155" type="line"/>
      <point x="304" y="148"/>
      <point x="176" y="123"/>
      <point x="115" y="224" type="curve" smooth="yes"/>
      <point x="62" y="312"/>
      <point x="108" y="416"/>
      <point x="172" y="458" type="curve" smooth="yes"/>
      <point x="243" y="503"/>
      <point x="366" y="498"/>
      <point x="422" y="410" type="curve" smooth="yes"/>
      <point x="437" y="384"/>
      <point x="447" y="353"/>
      <point x="447" y="318" type="curve" smooth="yes"/>
      <point x="447" y="94" type="line" smooth="yes"/>
      <point x="447" y="46"/>
      <point x="408" y="0"/>
      <point x="352" y="0" type="curve" smooth="yes"/>
      <point x="0" y="0" type="line"/>
    </contour>
  </outline>
</glyph>
<glyph name="arFeh.isol" format="2">
  <advance width="851"/>
  <outline>
    <contour>
      <point x="749.0" y="19.0" type="line"/>
      <point x="641.0" y="15.0"/>
      <point x="509.0" y="-15.0"/>
      <point x="446.0" y="89.0" type="curve" smooth="yes"/>
      <point x="388.0" y="185.0"/>
      <point x="437.0" y="296.0"/>
      <point x="506.0" y="341.0" type="curve" smooth="yes"/>
      <point x="583.0" y="390.0"/>
      <point x="713.0" y="385.0"/>
      <point x="774.0" y="289.0" type="curve" smooth="yes"/>
      <point x="791.0" y="261.0"/>
      <point x="801.0" y="227.0"/>
      <point x="801.0" y="190.0" type="curve" smooth="yes"/>
      <point x="801.0" y="-93.0" type="line" smooth="yes"/>
      <point x="801.0" y="-148.0"/>
      <point x="756.0" y="-200.0"/>
      <point x="693.0" y="-200.0" type="curve" smooth="yes"/>
      <point x="201.0" y="-200.0" type="line" smooth="yes"/>
      <point x="120.0" y="-200.0"/>
      <point x="50.0" y="-142.0"/>
      <point x="50.0" y="-53.0" type="curve" smooth="yes"/>
      <point x="50.0" y="99.0" type="line"/>
      <point x="155.0" y="99.0" type="line"/>
      <point x="155.0" y="-53.0" type="line" smooth="yes"/>
      <point x="155.0" y="-80.0"/>
      <point x="168.0" y="-94.0"/>
      <point x="201.0" y="-94.0" type="curve" smooth="yes"/>
      <point x="715.0" y="-94.0" type="line"/>
      <point x="696.0" y="-114.0" type="line"/>
      <point x="696.0" y="190.0" type="line" smooth="yes"/>
      <point x="696.0" y="227.0"/>
      <point x="670.0" y="255.0"/>
      <point x="637.0" y="264.0" type="curve" smooth="yes"/>
      <point x="614.0" y="270.0"/>
      <point x="587.0" y="268.0"/>
      <point x="563.0" y="253.0" type="curve" smooth="yes"/>
      <point x="534.0" y="234.0"/>
      <point x="513.0" y="179.0"/>
      <point x="535.0" y="143.0" type="curve" smooth="yes"/>
      <point x="562.0" y="98.0"/>
      <point x="584.0" y="87.0"/>
      <point x="749.0" y="95.0" type="curve"/>
    </contour>
  </outline>
</glyph>
<glyph name="arGaf.above" format="2">
  <anchor x="0" y="0" name="_gafAbove"/>
  <anchor x="-196" y="0" name="dotAboveGaf"/>
  <outline>
    <contour>
      <point x="-150" y="-50" type="curve"/>
      <point x="-180" y="-3" type="line"/>
      <point x="-73" y="63"/>
      <point x="133" y="109"/>
      <point x="179" y="110" type="curve"/>
      <point x="180" y="54" type="line"/>
      <point x="152" y="53"/>
      <point x="-60" y="6"/>
    </contour>
  </outline>
</glyph>
<glyph name="arGaf.isol" format="2">
  <advance width="675"/>
  <anchor x="279" y="-149" name="dotBelow"/>
  <anchor x="279" y="-170" name="markBelow"/>
  <anchor x="243" y="676" name="markAbove"/>
  <anchor x="192" y="639" name="dotAbove"/>
  <anchor x="440" y="649" name="gafAbove"/>
  <anchor x="483" y="535" name="ringBelow"/>
  <outline>
    <contour>
      <point x="127" y="79" type="line"/>
      <point x="191" y="0" type="line"/>
      <point x="111" y="0" type="line"/>
      <point x="46" y="79" type="line"/>
    </contour>
    <component base="arKaf.medi" xOffset="111"/>
  </outline>
</glyph>
<glyph name="arHah.isol" format="2">
  <advance width="535"/>
  <anchor x="264" y="-17" name="dotBelow"/>
  <anchor x="264" y="-243" name="markBelow"/>
  <anchor x="219" y="511" name="dotAbove"/>
  <anchor x="219" y="549" name="markAbove"/>
  <anchor x="219" y="511" name="hamzaAbove"/>
  <outline>
    <contour>
      <point x="410" y="-121" type="line"/>
      <point x="410" y="-200" type="line"/>
      <point x="169" y="-200" type="line" smooth="yes"/>
      <point x="99" y="-200"/>
      <point x="46" y="-148"/>
      <point x="46" y="-80" type="curve" smooth="yes"/>
      <point x="46" y="41" type="line" smooth="yes"/>
      <point x="46" y="106"/>
      <point x="98" y="170"/>
      <point x="175" y="170" type="curve" smooth="yes"/>
      <point x="354" y="170" type="line"/>
      <point x="337" y="175"/>
      <point x="324" y="187"/>
      <point x="313" y="199" type="curve" smooth="yes"/>
      <point x="269" y="248"/>
      <point x="233" y="313"/>
      <point x="134" y="351" type="curve"/>
      <point x="163" y="424" type="line"/>
      <point x="286" y="378"/>
      <point x="338" y="289"/>
      <point x="372" y="252" type="curve" smooth="yes"/>
      <point x="416" y="204"/>
      <point x="427" y="200"/>
      <point x="488" y="200" type="curve"/>
      <point x="488" y="161" type="line" smooth="yes"/>
      <point x="488" y="141"/>
      <point x="473" y="91"/>
      <point x="422" y="91" type="curve" smooth="yes"/>
      <point x="174" y="91" type="line" smooth="yes"/>
      <point x="148" y="91"/>
      <point x="124" y="68"/>
      <point x="124" y="41" type="curve" smooth="yes"/>
      <point x="124" y="-80" type="line" smooth="yes"/>
      <point x="124" y="-105"/>
      <point x="140" y="-121"/>
      <point x="169" y="-121" type="curve" smooth="yes"/>
    </contour>
  </outline>
</glyph>
<glyph name="arHeh.fina2" format="2">
  <advance width="315"/>
  <anchor x="193" y="-113" name="dotBelow"/>
  <anchor x="193" y="-139" name="markBelow"/>
  <anchor x="170" y="270" name="dotAbove"/>
  <anchor x="170" y="270" name="hamzaAbove"/>
  <anchor x="170" y="308" name="markAbove"/>
  <anchor x="170" y="270" name="kafAbove"/>
  <outline>
    <contour>
      <point x="160" y="-47" type="line"/>
      <point x="81" y="-47" type="line"/>
      <point x="81" y="24" type="line" smooth="yes"/>
      <point x="81" y="76"/>
      <point x="124.0" y="115.0"/>
      <point x="174" y="115" type="curve" smooth="yes"/>
      <point x="331" y="115" type="line"/>
      <point x="331" y="36" type="line"/>
      <point x="150" y="36" type="line"/>
      <point x="153.5" y="39.85"/>
      <point x="156.5" y="43.15"/>
      <point x="160" y="47" type="curve"/>
    </contour>
  </outline>
</glyph>
<glyph name="arHeh.init" format="2">
  <advance width="702"/>
  <anchor x="336" y="532" name="dotAbove"/>
  <anchor x="336" y="664" name="markAbove"/>
  <anchor x="336" y="532" name="hamzaAbove"/>
  <anchor x="336" y="532" name="kafAbove"/>
  <anchor x="336" y="-149" name="dotBelow"/>
  <anchor x="336" y="-176" name="markBelow"/>
  <outline>
    <contour>
      <point x="248" y="396" type="curve"/>
      <point x="250" y="474" type="line"/>
      <point x="532" y="470"/>
      <point x="660" y="262"/>
      <point x="656" y="92" type="curve" smooth="yes"/>
      <point x="655" y="40"/>
      <point x="614" y="0"/>
      <point x="564" y="0" type="curve" smooth="yes"/>
      <point x="0" y="0" type="line"/>
      <point x="0" y="79" type="line"/>
      <point x="587" y="79" type="line"/>
      <point x="583.15" y="75.5"/>
      <point x="579.85" y="72.5"/>
      <point x="576" y="69" type="curve"/>
      <point x="582" y="218"/>
      <point x="485" y="392"/>
    </contour>
    <contour>
      <point x="211" y="75" type="line"/>
      <point x="133" y="75" type="line"/>
      <point x="133" y="187" type="line" smooth="yes"/>
      <point x="133" y="233"/>
      <point x="153" y="273"/>
      <point x="187" y="295" type="curve" smooth="yes"/>
      <point x="258" y="342"/>
      <point x="362" y="311"/>
      <point x="423" y="218" type="curve" smooth="yes"/>
      <point x="443" y="187"/>
      <point x="454" y="156"/>
      <point x="455" y="126" type="curve" smooth="yes"/>
      <point x="456" y="45"/>
      <point x="385" y="2"/>
      <point x="323" y="1" type="curve"/>
      <point x="321" y="79" type="line"/>
      <point x="354" y="79"/>
      <point x="376" y="99"/>
      <point x="376" y="125" type="curve" smooth="yes"/>
      <point x="376" y="136"/>
      <point x="371" y="153"/>
      <point x="357" y="175" type="curve" smooth="yes"/>
      <point x="313" y="243"/>
      <point x="254" y="245"/>
      <point x="231" y="230" type="curve" smooth="yes"/>
      <point x="220" y="222"/>
      <point x="211" y="211"/>
      <point x="211" y="187" type="curve" smooth="yes"/>
    </contour>
  </outline>
</glyph>
<glyph name="arHeh.init2" format="2">
  <advance width="352"/>
  <anchor x="112" y="491" name="dotAbove"/>
  <anchor x="112" y="527" name="markAbove"/>
  <outline>
    <contour>
      <point x="216" y="232" type="line"/>
      <point x="294" y="232" type="line"/>
      <point x="294" y="91" type="line" smooth="yes"/>
      <point x="294" y="39"/>
      <point x="252" y="0"/>
      <point x="202" y="0" type="curve" smooth="yes"/>
      <point x="0" y="0" type="line"/>
      <point x="0" y="79" type="line"/>
      <point x="226" y="79" type="line"/>
      <point x="222.5" y="75.5"/>
      <point x="219.5" y="72.5"/>
      <point x="216" y="69" type="curve"/>
    </contour>
    <contour>
      <point x="273" y="-146" type="curve"/>
      <point x="313" y="-176" type="line"/>
      <point x="261" y="-235"/>
      <point x="200" y="-235"/>
      <point x="170" y="-212" type="curve" smooth="yes"/>
      <point x="143" y="-191"/>
      <point x="132" y="-155"/>
      <point x="139" y="-111" type="curve" smooth="yes"/>
      <point x="153" y="-40"/>
      <point x="175" y="-3"/>
      <point x="228" y="58" type="curve"/>
      <point x="268" y="27" type="line"/>
      <point x="234" y="-12"/>
      <point x="218" y="-33"/>
      <point x="206" y="-86" type="curve" smooth="yes"/>
      <point x="193" y="-139"/>
      <point x="225" y="-185"/>
    </contour>
  </outline>
</glyph>
<glyph name="arHeh.isol" format="2">
  <advance width="438"/>
  <anchor x="261" y="505" name="dotAbove"/>
  <anchor x="261" y="541" name="markAbove"/>
  <anchor x="261" y="450" name="hamzaAbove"/>
  <anchor x="239" y="-109" name="dotBelow"/>
  <anchor x="239" y="-136" name="markBelow"/>
  <anchor x="261" y="450" name="kafAbove"/>
  <outline>
    <contour>
      <point x="317" y="366" type="line"/>
      <point x="259" y="242"/>
      <point x="198" y="203"/>
      <point x="137" y="145" type="curve" smooth="yes"/>
      <point x="118" y="124"/>
      <point x="123" y="104"/>
      <point x="138" y="91" type="curve" smooth="yes"/>
      <point x="145" y="84"/>
      <point x="157" y="79"/>
      <point x="171" y="79" type="curve" smooth="yes"/>
      <point x="313" y="79" type="line" smooth="yes"/>
      <point x="315" y="74"/>
      <point x="318" y="77"/>
      <point x="313" y="79" type="curve" smooth="yes"/>
      <point x="313" y="351" type="line"/>
      <point x="391" y="351" type="line"/>
      <point x="391" y="92" type="line" smooth="yes"/>
      <point x="391" y="40"/>
      <point x="352" y="0"/>
      <point x="300" y="0" type="curve" smooth="yes"/>
      <point x="171" y="0" type="line" smooth="yes"/>
      <point x="138" y="0"/>
      <point x="107" y="13"/>
      <point x="84" y="33" type="curve" smooth="yes"/>
      <point x="41" y="73"/>
      <point x="28" y="151"/>
      <point x="81" y="201" type="curve" smooth="yes"/>
      <point x="154" y="270"/>
      <point x="202" y="298"/>
      <point x="243" y="397" type="curve"/>
    </contour>
  </outline>
</glyph>
<glyph name="arHeh.medi2" format="2">
  <advance width="566"/>
  <anchor x="340" y="-401" name="dotBelow"/>
  <anchor x="340" y="-428" name="markBelow"/>
  <anchor x="282" y="233" name="dotAbove"/>
  <anchor x="282" y="270" name="markAbove"/>
  <anchor x="336" y="233" name="hamzaAbove"/>
  <anchor x="336" y="233" name="kafAbove"/>
  <outline>
    <contour>
      <point x="342" y="-268" type="curve"/>
      <point x="264" y="-283" type="line"/>
      <point x="246" y="-189"/>
      <point x="218" y="-199"/>
      <point x="173" y="-126" type="curve" smooth="yes"/>
      <point x="139" y="-70"/>
      <point x="146" y="-13"/>
      <point x="130" y="0" type="curve" smooth="yes"/>
      <point x="0" y="0" type="line"/>
      <point x="0" y="79" type="line"/>
      <point x="139" y="79" type="line" smooth="yes"/>
      <point x="232" y="79"/>
      <point x="223" y="-55"/>
      <point x="241" y="-85" type="curve" smooth="yes"/>
      <point x="268" y="-128"/>
      <point x="320" y="-154"/>
    </contour>
    <contour>
      <point x="413" y="-276" type="line"/>
      <point x="335" y="-276" type="line"/>
      <point x="335" y="-12" type="line" smooth="yes"/>
      <point x="335" y="39"/>
      <point x="377" y="79"/>
      <point x="427" y="79" type="curve" smooth="yes"/>
      <point x="579" y="79" type="line"/>
      <point x="579" y="0" type="line"/>
      <point x="403" y="0" type="line"/>
      <point x="406.5" y="3.5"/>
      <point x="409.5" y="6.5"/>
      <point x="413" y="10" type="curve"/>
    </contour>
  </outline>
</glyph>
<glyph name="arKaf.init" format="2">
  <advance width="564"/>
  <anchor x="330" y="649" name="gafAbove"/>
  <anchor x="206" y="-149" name="dotBelow"/>
  <anchor x="206" y="-173" name="markBelow"/>
  <anchor x="82" y="639" name="dotAbove"/>
  <anchor x="273" y="688" name="markAbove"/>
  <anchor x="373" y="535" name="ringBelow"/>
  <outline>
    <contour>
      <point x="0" y="0" type="line"/>
      <point x="0" y="79" type="line"/>
      <point x="426" y="79" type="line" smooth="yes"/>
      <point x="435.48683298050514" y="79.0"/>
      <point x="435.89490377734535" y="82.96719814710275"/>
      <point x="429" y="90" type="curve" smooth="yes"/>
      <point x="182.26463453910876" y="341.6700727701091" type="line" smooth="yes"/>
      <point x="179.75275097393992" y="344.23219400658104"/>
      <point x="176.99978679308302" y="345.0"/>
      <point x="173.4117477359728" y="345.0" type="curve" smooth="yes"/>
      <point x="163.30090952453372" y="345.0" type="line" smooth="yes"/>
      <point x="159.7656311265059" y="345.0"/>
      <point x="157.11518296852734" y="345.9035103490397"/>
      <point x="154.64162928752745" y="348.429322206398" type="curve" smooth="yes"/>
      <point x="121.3907596688434" y="382.38267498603966" type="line" smooth="yes"/>
      <point x="78.8448857705377" y="425.82740537515406"/>
      <point x="79.32607726270089" y="488.0908326237727"/>
      <point x="150" y="531" type="curve" smooth="yes"/>
      <point x="262.0" y="599.0"/>
      <point x="465" y="645"/>
      <point x="514" y="646" type="curve"/>
      <point x="515" y="568" type="line"/>
      <point x="490" y="567"/>
      <point x="275" y="519"/>
      <point x="183" y="460" type="curve" smooth="yes"/>
      <point x="179.0" y="457.0"/>
      <point x="183.02046750922716" y="454.03992841963986"/>
      <point x="186" y="451" type="curve" smooth="yes"/>
      <point x="482" y="149" type="line" smooth="yes"/>
      <point x="535" y="95"/>
      <point x="497" y="0"/>
      <point x="419" y="0" type="curve" smooth="yes"/>
    </contour>
  </outline>
</glyph>
<glyph name="arKaf.isol" format="2">
  <advance width="572"/>
  <anchor x="488" y="673" name="dotAbove"/>
  <anchor x="488" y="710" name="markAbove"/>
  <anchor x="287" y="-109" name="dotBelow"/>
  <anchor x="287" y="-136" name="markBelow"/>
  <anchor x="252" y="271" name="hamzaAbove"/>
  <anchor x="252" y="271" name="kafAbove"/>
  <outline>
    <contour>
      <point x="127" y="79" type="line"/>
      <point x="191" y="0" type="line"/>
      <point x="111" y="0" type="line"/>
      <point x="46" y="79" type="line"/>
    </contour>
    <contour>
      <point x="447" y="624" type="line"/>
      <point x="526" y="624" type="line"/>
      <point x="526" y="92" type="line" smooth="yes"/>
      <point x="526" y="41"/>
      <point x="485" y="0"/>
      <point x="433" y="0" type="curve" smooth="yes"/>
      <point x="111" y="0" type="line"/>
      <point x="111" y="79" type="line"/>
      <point x="457" y="79" type="line"/>
      <point x="453.5" y="75.5"/>
      <point x="450.5" y="72.5"/>
      <point x="447" y="69" type="curve"/>
    </contour>
  </outline>
</glyph>
<glyph name="arLam.init.1" format="2">
  <advance width="198"/>
  <anchor x="112" y="724" name="dotAbove"/>
  <anchor x="112" y="760" name="markAbove"/>
  <anchor x="112" y="-99" name="dotBelow"/>
  <anchor x="112" y="-126" name="markBelow"/>
  <outline>
    <contour>
      <point x="73" y="624" type="line"/>
      <point x="151" y="624" type="line"/>
      <point x="151" y="92" type="line" smooth="yes"/>
      <point x="151" y="39"/>
      <point x="109" y="0"/>
      <point x="59" y="0" type="curve" smooth="yes"/>
      <point x="-166" y="0" type="line"/>
      <point x="-166" y="79" type="line"/>
      <point x="72" y="79" type="line" smooth="yes"/>
      <point x="75" y="74"/>
      <point x="77" y="75"/>
      <point x="73" y="79" type="curve" smooth="yes"/>
    </contour>
  </outline>
</glyph>
<glyph name="arLam.init" format="2">
  <advance width="257"/>
  <anchor x="172" y="724" name="dotAbove"/>
  <anchor x="172" y="760" name="markAbove"/>
  <anchor x="142" y="-99" name="dotBelow"/>
  <anchor x="142" y="-126" name="markBelow"/>
  <anchor x="170.0" y="420.0" name="dash"/>
  <outline>
    <contour>
      <point x="132" y="624" type="line"/>
      <point x="211" y="624" type="line"/>
      <point x="211" y="92" type="line" smooth="yes"/>
      <point x="211" y="41"/>
      <point x="171" y="0"/>
      <point x="118" y="0" type="curve" smooth="yes"/>
      <point x="0" y="0" type="line"/>
      <point x="0" y="79" type="line"/>
      <point x="141" y="79" type="line"/>
      <point x="137.85" y="75.5"/>
      <point x="135.15" y="72.5"/>
      <point x="132" y="69" type="curve"/>
    </contour>
  </outline>
</glyph>
<glyph name="arLam.isol" format="2">
  <advance width="539"/>
  <anchor x="453" y="674" name="dotAbove"/>
  <anchor x="453" y="711" name="markAbove"/>
  <anchor x="256" y="-258" name="dotBelow"/>
  <anchor x="256" y="-284" name="markBelow"/>
  <outline>
    <contour>
      <point x="414" y="624" type="line"/>
      <point x="493" y="624" type="line"/>
      <point x="493" y="-55" type="line" smooth="yes"/>
      <point x="493" y="-103"/>
      <point x="455" y="-148"/>
      <point x="400" y="-148" type="curve" smooth="yes"/>
      <point x="140" y="-148" type="line" smooth="yes"/>
      <point x="89" y="-148"/>
      <point x="46" y="-110"/>
      <point x="46" y="-56" type="curve" smooth="yes"/>
      <point x="46" y="133" type="line"/>
      <point x="125" y="133" type="line"/>
      <point x="125" y="-69" type="line" smooth="yes"/>
      <point x="120" y="-73"/>
      <point x="122" y="-75"/>
      <point x="126" y="-70" type="curve" smooth="yes"/>
      <point x="414" y="-70" type="line" smooth="yes"/>
      <point x="418" y="-75"/>
      <point x="419" y="-71"/>
      <point x="414" y="-69" type="curve" smooth="yes"/>
    </contour>
  </outline>
</glyph>
<glyph name="arMeem.fina" format="2">
  <advance width="485.0"/>
  <outline>
    <contour>
      <point x="501" y="79" type="line"/>
      <point x="501" y="0" type="line"/>
      <point x="460" y="0" type="line"/>
      <point x="460" y="79" type="line"/>
    </contour>
    <component base="arMeem.isol"/>
  </outline>
</glyph>
<glyph name="arMeem.init" format="2">
  <advance width="505"/>
  <anchor x="179" y="-136" name="markBelow"/>
  <anchor x="179" y="-109" name="dotBelow"/>
  <anchor x="257" y="485" name="markAbove"/>
  <anchor x="257" y="449" name="dotAbove"/>
  <outline>
    <contour>
      <point x="0" y="0" type="line"/>
      <point x="0" y="79" type="line"/>
      <point x="123" y="79" type="line"/>
      <point x="119.5" y="75.5"/>
      <point x="116.5" y="72.5"/>
      <point x="113" y="69" type="curve"/>
      <point x="113" y="225" type="line" smooth="yes"/>
      <point x="113.0" y="265.0"/>
      <point x="128" y="301"/>
      <point x="154" y="325" type="curve" smooth="yes"/>
      <point x="212" y="382"/>
      <point x="314" y="378"/>
      <point x="375" y="315" type="curve" smooth="yes"/>
      <point x="431" y="256"/>
      <point x="459" y="202"/>
      <point x="459" y="149" type="curve" smooth="yes"/>
      <point x="459" y="45"/>
      <point x="354" y="0"/>
      <point x="265" y="0" type="curve" smooth="yes"/>
      <point x="188" y="0" type="line"/>
      <point x="188" y="79" type="line"/>
      <point x="265" y="79" type="line" smooth="yes"/>
      <point x="341" y="79"/>
      <point x="380" y="112"/>
      <point x="380" y="149" type="curve" smooth="yes"/>
      <point x="380" y="172"/>
      <point x="366" y="210"/>
      <point x="318" y="261" type="curve" smooth="yes"/>
      <point x="285" y="295"/>
      <point x="233" y="292"/>
      <point x="209" y="269" type="curve" smooth="yes"/>
      <point x="199" y="259"/>
      <point x="192" y="246"/>
      <point x="192" y="225" type="curve" smooth="yes"/>
      <point x="192" y="92" type="line"/>
      <point x="191" y="42"/>
      <point x="152" y="0"/>
      <point x="97" y="0" type="curve" smooth="yes"/>
    </contour>
  </outline>
</glyph>
<glyph name="arMeem.isol" format="2">
  <advance width="632"/>
  <anchor x="384" y="449" name="dotAbove"/>
  <anchor x="384" y="486" name="markAbove"/>
  <anchor x="306" y="-109" name="dotBelow"/>
  <anchor x="306" y="-135" name="markBelow"/>
  <outline>
    <contour>
      <point x="127" y="79" type="line"/>
      <point x="191" y="0" type="line"/>
      <point x="111" y="0" type="line"/>
      <point x="46" y="79" type="line"/>
    </contour>
    <component base="arMeem.init" xOffset="127"/>
  </outline>
</glyph>
<glyph name="arNoon.fina" format="2">
  <advance width="620"/>
  <outline>
    <contour>
      <point x="640.0" y="105.0" type="line"/>
      <point x="640.0" y="0.0" type="line"/>
      <point x="499.0" y="0.0" type="line"/>
      <point x="499.0" y="105.0" type="line"/>
    </contour>
    <component base="arNoon.isol"/>
  </outline>
</glyph>
<glyph name="arNoon.isol" format="2">
  <advance width="535"/>
  <anchor x="273" y="-297" name="dotBelow"/>
  <anchor x="273" y="-323" name="markBelow"/>
  <anchor x="273" y="302" name="dotAbove"/>
  <anchor x="273" y="340" name="markAbove"/>
  <anchor x="273" y="-188" name="ringBelow"/>
  <outline>
    <contour>
      <point x="410" y="175" type="line"/>
      <point x="489" y="175" type="line"/>
      <point x="489" y="-96" type="line" smooth="yes"/>
      <point x="489" y="-145"/>
      <point x="451" y="-188"/>
      <point x="398" y="-188" type="curve" smooth="yes"/>
      <point x="260" y="-188" type="line" smooth="yes"/>
      <point x="140" y="-188"/>
      <point x="46" y="-123"/>
      <point x="46" y="-16" type="curve" smooth="yes"/>
      <point x="46" y="174" type="line"/>
      <point x="125" y="174" type="line"/>
      <point x="125" y="-16" type="line" smooth="yes"/>
      <point x="125" y="-56"/>
      <point x="165.0" y="-108.0"/>
      <point x="260" y="-108" type="curve" smooth="yes"/>
      <point x="420" y="-108" type="line"/>
      <point x="416.5" y="-111.5"/>
      <point x="413.5" y="-114.5"/>
      <point x="410" y="-118" type="curve"/>
    </contour>
  </outline>
</glyph>
<glyph name="arQaf.fina" format="2">
  <advance width="805"/>
  <outline>
    <contour>
      <point x="825.0" y="105.0" type="line"/>
      <point x="825.0" y="0.0" type="line"/>
      <point x="626.0" y="0.0" type="line" smooth="yes"/>
      <point x="542.0" y="0.0"/>
      <point x="438.0" y="-14.0"/>
      <point x="375.0" y="90.0" type="curve" smooth="yes"/>
      <point x="317.0" y="186.0"/>
      <point x="367.0" y="297.0"/>
      <point x="436.0" y="342.0" type="curve" smooth="yes"/>
      <point x="513.0" y="391.0"/>
      <point x="643.0" y="386.0"/>
      <point x="704.0" y="290.0" type="curve" smooth="yes"/>
      <point x="721.0" y="262.0"/>
      <point x="730.0" y="228.0"/>
      <point x="730.0" y="191.0" type="curve" smooth="yes"/>
      <point x="730.0" y="-93.0" type="line" smooth="yes"/>
      <point x="730.0" y="-148.0"/>
      <point x="686.0" y="-200.0"/>
      <point x="623.0" y="-200.0" type="curve" smooth="yes"/>
      <point x="201.0" y="-200.0" type="line" smooth="yes"/>
      <point x="120.0" y="-200.0"/>
      <point x="50.0" y="-142.0"/>
      <point x="50.0" y="-53.0" type="curve" smooth="yes"/>
      <point x="50.0" y="189.0" type="line"/>
      <point x="154.0" y="189.0" type="line"/>
      <point x="154.0" y="-53.0" type="line" smooth="yes"/>
      <point x="154.0" y="-80.0"/>
      <point x="168.0" y="-94.0"/>
      <point x="201.0" y="-94.0" type="curve" smooth="yes"/>
      <point x="645.0" y="-94.0" type="line"/>
      <point x="626.0" y="-114.0" type="line"/>
      <point x="626.0" y="191.0" type="line" smooth="yes"/>
      <point x="626.0" y="221.0"/>
      <point x="610.0" y="243.0"/>
      <point x="587.0" y="256.0" type="curve" smooth="yes"/>
      <point x="559.0" y="272.0"/>
      <point x="521.0" y="272.0"/>
      <point x="492.0" y="254.0" type="curve" smooth="yes"/>
      <point x="463.0" y="235.0"/>
      <point x="443.0" y="180.0"/>
      <point x="465.0" y="144.0" type="curve" smooth="yes"/>
      <point x="492.0" y="99.0"/>
      <point x="521.0" y="105.0"/>
      <point x="626.0" y="105.0" type="curve" smooth="yes"/>
    </contour>
  </outline>
</glyph>
<glyph name="arReh.fina" format="2">
  <advance width="361"/>
  <anchor x="212" y="329" name="dotAbove"/>
  <anchor x="212" y="366" name="markAbove"/>
  <anchor x="122" y="-312" name="dotBelow"/>
  <anchor x="122" y="-338" name="markBelow"/>
  <anchor x="122" y="-197" name="ringBelow"/>
  <outline>
    <contour>
      <point x="374" y="79" type="line"/>
      <point x="374" y="0" type="line"/>
      <point x="238" y="0" type="line"/>
      <point x="238" y="79" type="line"/>
    </contour>
    <component base="arReh.isol"/>
  </outline>
</glyph>
<glyph name="arReh.isol" format="2">
  <advance width="344"/>
  <outline>
    <contour>
      <point x="188.0" y="187.0" type="line"/>
      <point x="294.0" y="187.0" type="line"/>
      <point x="294.0" y="-1.0" type="line" smooth="yes"/>
      <point x="294.0" y="-108.0"/>
      <point x="214.0" y="-200.0"/>
      <point x="102.0" y="-200.0" type="curve" smooth="yes"/>
      <point x="0.0" y="-200.0" type="line"/>
      <point x="0.0" y="-96.0" type="line"/>
      <point x="102.0" y="-96.0" type="line" smooth="yes"/>
      <point x="152.0" y="-96.0"/>
      <point x="188.0" y="-58.0"/>
      <point x="188.0" y="-1.0" type="curve" smooth="yes"/>
    </contour>
  </outline>
</glyph>
<glyph name="arSad.above" format="2">
  <anchor x="0" y="0" name="_hamzaAbove"/>
  <anchor x="0" y="278" name="markAbove"/>
  <outline>
    <contour>
      <point x="-82" y="0" type="line"/>
      <point x="-142" y="0" type="line"/>
      <point x="-142" y="39" type="line"/>
      <point x="-82" y="39" type="line"/>
    </contour>
    <contour>
      <point x="-93" y="38" type="line"/>
      <point x="-46" y="104"/>
      <point x="12" y="200"/>
      <point x="91" y="171" type="curve" smooth="yes"/>
      <point x="126" y="157"/>
      <point x="141" y="124"/>
      <point x="142" y="79" type="curve" smooth="yes"/>
      <point x="143" y="46" type="line" smooth="yes"/>
      <point x="144" y="20"/>
      <point x="122" y="0"/>
      <point x="97" y="0" type="curve" smooth="yes"/>
      <point x="-99" y="0" type="line"/>
      <point x="-99" y="39" type="line"/>
      <point x="104" y="39" type="line" smooth="yes"/>
      <point x="105" y="37"/>
      <point x="106" y="38"/>
      <point x="103" y="39" type="curve" smooth="yes"/>
      <point x="103" y="79" type="line" smooth="yes"/>
      <point x="102" y="116"/>
      <point x="92" y="128"/>
      <point x="77" y="135" type="curve" smooth="yes"/>
      <point x="41" y="147"/>
      <point x="1" y="105"/>
      <point x="-59" y="18" type="curve"/>
    </contour>
  </outline>
</glyph>
<glyph name="arSad.head" format="2">
  <anchor x="0" y="507" name="dotAbove"/>
  <anchor x="0" y="544" name="markAbove"/>
  <anchor x="0" y="-200" name="dotBelow"/>
  <anchor x="0" y="-226" name="markBelow"/>
  <outline>
    <contour>
      <point x="-234" y="70" type="line"/>
      <point x="-139" y="203"/>
      <point x="-20" y="402"/>
      <point x="138" y="343" type="curve" smooth="yes"/>
      <point x="207" y="314"/>
      <point x="238" y="247"/>
      <point x="240" y="159" type="curve" smooth="yes"/>
      <point x="242" y="93" type="line" smooth="yes"/>
      <point x="243" y="41"/>
      <point x="200" y="0"/>
      <point x="149" y="0" type="curve" smooth="yes"/>
      <point x="-242" y="0" type="line"/>
      <point x="-242" y="79" type="line"/>
      <point x="162" y="79" type="line" smooth="yes"/>
      <point x="166" y="74"/>
      <point x="167" y="76"/>
      <point x="162" y="78" type="curve" smooth="yes"/>
      <point x="161" y="157" type="line" smooth="yes"/>
      <point x="160" y="232"/>
      <point x="141" y="256"/>
      <point x="109" y="269" type="curve" smooth="yes"/>
      <point x="39" y="295"/>
      <point x="-46" y="207"/>
      <point x="-164" y="32" type="curve"/>
    </contour>
  </outline>
</glyph>
<glyph name="arSad.init" format="2">
  <advance width="694"/>
  <anchor x="390" y="-149" name="dotBelow"/>
  <anchor x="390" y="-175" name="markBelow"/>
  <anchor x="302" y="427" name="dotAbove"/>
  <anchor x="302" y="465" name="markAbove"/>
  <outline>
    <contour>
      <point x="0" y="0" type="line"/>
      <point x="0" y="79" type="line"/>
      <point x="174" y="79" type="line"/>
      <point x="174" y="0" type="line"/>
    </contour>
    <contour>
      <point x="99" y="264" type="line"/>
      <point x="177" y="264" type="line"/>
      <point x="177" y="70" type="line"/>
      <point x="99" y="70" type="line"/>
    </contour>
    <component base="arSad.head" xOffset="406"/>
  </outline>
</glyph>
<glyph name="arSad.isol" format="2">
  <advance width="1010"/>
  <anchor x="617" y="440" name="dotAbove"/>
  <anchor x="617" y="476" name="markAbove"/>
  <anchor x="725" y="-111" name="dotBelow"/>
  <anchor x="258" y="-337" name="markBelow"/>
  <outline>
    <contour>
      <point x="415" y="264" type="line"/>
      <point x="494" y="264" type="line"/>
      <point x="494" y="-110" type="line" smooth="yes"/>
      <point x="494" y="-161"/>
      <point x="453" y="-202"/>
      <point x="402" y="-202" type="curve" smooth="yes"/>
      <point x="135" y="-202" type="line" smooth="yes"/>
      <point x="82" y="-202"/>
      <point x="46" y="-153"/>
      <point x="46" y="-106" type="curve" smooth="yes"/>
      <point x="46" y="172" type="line"/>
      <point x="125" y="172" type="line"/>
      <point x="125" y="-121" type="line" smooth="yes"/>
      <point x="120" y="-124"/>
      <point x="123" y="-127"/>
      <point x="124" y="-123" type="curve" smooth="yes"/>
      <point x="415" y="-123" type="line" smooth="yes"/>
      <point x="418" y="-127"/>
      <point x="420" y="-125"/>
      <point x="415" y="-122" type="curve" smooth="yes"/>
    </contour>
    <component base="arSad.head" xOffset="722"/>
  </outline>
</glyph>
<glyph name="arSeen.isol" format="2">
  <advance width="901"/>
  <anchor x="627" y="512" name="dotAbove"/>
  <anchor x="627" y="549" name="markAbove"/>
  <anchor x="670" y="-111" name="dotBelow"/>
  <anchor x="258" y="-337" name="markBelow"/>
  <outline>
    <contour>
      <point x="415" y="365" type="line"/>
      <point x="494" y="365" type="line"/>
      <point x="494" y="-110" type="line" smooth="yes"/>
      <point x="494" y="-161"/>
      <point x="453" y="-202"/>
      <point x="402" y="-202" type="curve" smooth="yes"/>
      <point x="135" y="-202" type="line" smooth="yes"/>
      <point x="82" y="-202"/>
      <point x="46" y="-153"/>
      <point x="46" y="-106" type="curve" smooth="yes"/>
      <point x="46" y="172" type="line"/>
      <point x="125" y="172" type="line"/>
      <point x="125" y="-121" type="line" smooth="yes"/>
      <point x="120" y="-124"/>
      <point x="123" y="-127"/>
      <point x="124" y="-123" type="curve" smooth="yes"/>
      <point x="415" y="-123" type="line" smooth="yes"/>
      <point x="418" y="-127"/>
      <point x="420" y="-125"/>
      <point x="415" y="-122" type="curve" smooth="yes"/>
    </contour>
    <contour>
      <point x="595" y="363" type="line"/>
      <point x="674" y="363" type="line"/>
      <point x="674" y="91" type="line" smooth="yes"/>
      <point x="674" y="39"/>
      <point x="632" y="0"/>
      <point x="581" y="0" type="curve" smooth="yes"/>
      <point x="489" y="0" type="line"/>
      <point x="489" y="79" type="line"/>
      <point x="594" y="79" type="line" smooth="yes"/>
      <point x="603" y="79"/>
      <point x="595" y="71"/>
      <point x="595" y="78" type="curve" smooth="yes"/>
    </contour>
    <contour>
      <point x="776" y="363" type="line"/>
      <point x="854" y="363" type="line"/>
      <point x="854" y="91" type="line" smooth="yes"/>
      <point x="854" y="39"/>
      <point x="812" y="0"/>
      <point x="761" y="0" type="curve" smooth="yes"/>
      <point x="667" y="0" type="line"/>
      <point x="667" y="79" type="line"/>
      <point x="774" y="79" type="line" smooth="yes"/>
      <point x="783" y="79"/>
      <point x="776" y="71"/>
      <point x="776" y="78" type="curve" smooth="yes"/>
    </contour>
  </outline>
</glyph>
<glyph name="arSwashKaf.init" format="2">
  <advance width="849"/>
  <anchor x="395" y="-173" name="markBelow"/>
  <anchor x="141" y="515" name="markAbove"/>
  <outline>
    <contour>
      <point x="0" y="0" type="line"/>
      <point x="0" y="79" type="line"/>
      <point x="737" y="79" type="line"/>
      <point x="737.0" y="76.2"/>
      <point x="737.0" y="73.8"/>
      <point x="737.0" y="71.0" type="curve"/>
      <point x="705.0" y="134.0"/>
      <point x="670" y="201"/>
      <point x="566" y="201" type="curve" smooth="yes"/>
      <point x="127" y="201" type="line" smooth="yes"/>
      <point x="8.0" y="201.0"/>
      <point x="49.839096150834564" y="302.13449375038147"/>
      <point x="95" y="356" type="curve" smooth="yes"/>
      <point x="177.71773976215533" y="454.66128771458307"/>
      <point x="327" y="511"/>
      <point x="437" y="530" type="curve"/>
      <point x="452" y="452" type="line"/>
      <point x="361" y="434"/>
      <point x="195.0" y="371.0"/>
      <point x="124.0" y="269.0" type="curve"/>
      <point x="121.2" y="272.5"/>
      <point x="118.8" y="275.5"/>
      <point x="116" y="279" type="curve"/>
      <point x="566" y="279" type="line" smooth="yes"/>
      <point x="720.0" y="279.0"/>
      <point x="774" y="162"/>
      <point x="788" y="142" type="curve" smooth="yes"/>
      <point x="816" y="101"/>
      <point x="809" y="0"/>
      <point x="712" y="0" type="curve" smooth="yes"/>
    </contour>
  </outline>
</glyph>
<glyph name="arSwashKaf.isol" format="2">
  <advance width="960"/>
  <anchor x="505" y="-173" name="markBelow"/>
  <anchor x="251" y="515" name="markAbove"/>
  <outline>
    <contour>
      <point x="127" y="79" type="line"/>
      <point x="191" y="0" type="line"/>
      <point x="111" y="0" type="line"/>
      <point x="46" y="79" type="line"/>
    </contour>
    <component base="arSwashKaf.init" xOffset="111"/>
  </outline>
</glyph>
<glyph name="arTah.above" format="2">
  <anchor x="0" y="0" name="_dotAbove"/>
  <anchor x="0" y="0" name="_markAboveDot"/>
  <anchor x="0" y="408" name="markAbove"/>
  <outline>
    <contour>
      <point x="-139" y="0" type="line"/>
      <point x="-139" y="39" type="line"/>
      <point x="-97" y="39" type="line"/>
      <point x="-97" y="0" type="line"/>
    </contour>
    <contour>
      <point x="-97" y="38" type="line"/>
      <point x="-50" y="104"/>
      <point x="8" y="201"/>
      <point x="87" y="171" type="curve" smooth="yes"/>
      <point x="122" y="157"/>
      <point x="138" y="124"/>
      <point x="139" y="79" type="curve" smooth="yes"/>
      <point x="139" y="46" type="line" smooth="yes"/>
      <point x="140" y="20"/>
      <point x="119" y="0"/>
      <point x="93" y="0" type="curve" smooth="yes"/>
      <point x="-103" y="0" type="line"/>
      <point x="-103" y="39" type="line"/>
      <point x="109" y="39" type="line"/>
      <point x="105.5" y="35.5"/>
      <point x="102.5" y="32.5"/>
      <point x="99" y="29" type="curve"/>
      <point x="99" y="79" type="line" smooth="yes"/>
      <point x="99.0" y="116.0"/>
      <point x="88" y="128"/>
      <point x="73" y="135" type="curve" smooth="yes"/>
      <point x="38" y="147"/>
      <point x="-2" y="105"/>
      <point x="-62" y="18" type="curve"/>
    </contour>
    <contour>
      <point x="-95" y="312" type="line"/>
      <point x="-55" y="312" type="line"/>
      <point x="-55" y="32" type="line"/>
      <point x="-95" y="32" type="line"/>
    </contour>
  </outline>
</glyph>
<glyph name="arTah.isol" format="2">
  <advance width="719"/>
  <anchor x="463" y="485" name="dotAbove"/>
  <anchor x="463" y="522" name="markAbove"/>
  <anchor x="426" y="-110" name="dotBelow"/>
  <anchor x="426" y="-136" name="markBelow"/>
  <outline>
    <contour>
      <point x="46" y="0" type="line"/>
      <point x="46" y="79" type="line"/>
      <point x="206" y="79" type="line"/>
      <point x="206" y="0" type="line"/>
    </contour>
    <contour>
      <point x="134" y="624" type="line"/>
      <point x="214" y="624" type="line"/>
      <point x="214" y="64" type="line"/>
      <point x="134" y="64" type="line"/>
    </contour>
    <component base="arSad.head" xOffset="431"/>
  </outline>
</glyph>
<glyph name="arTail.above" format="2">
  <anchor x="0" y="0" name="_tailAbove"/>
  <outline>
    <contour>
      <point x="-16.0" y="60.0" type="line"/>
      <point x="34.0" y="0.0" type="line"/>
      <point x="-64.0" y="-83.0" type="line"/>
      <point x="-104.0" y="-45.0" type="line"/>
    </contour>
  </outline>
</glyph>
<glyph name="arWaw.fina" format="2">
  <advance width="482"/>
  <anchor x="252" y="466" name="dotAbove"/>
  <anchor x="252" y="503" name="markAbove"/>
  <anchor x="252" y="466" name="hamzaAbove"/>
  <anchor x="188" y="-309" name="dotBelow"/>
  <anchor x="188" y="-335" name="markBelow"/>
  <anchor x="252" y="466" name="kafAbove"/>
  <anchor x="188" y="-200" name="ringBelow"/>
  <outline>
    <contour>
      <point x="495" y="79" type="line"/>
      <point x="495" y="0" type="line"/>
      <point x="349" y="0" type="line"/>
      <point x="349" y="79" type="line"/>
    </contour>
    <component base="arWaw.isol"/>
  </outline>
</glyph>
<glyph name="arWaw.isol" format="2">
  <advance width="439"/>
  <anchor x="252" y="466" name="dotAbove"/>
  <anchor x="220.0" y="503" name="markAbove"/>
  <anchor x="252" y="466" name="hamzaAbove"/>
  <anchor x="188" y="-309" name="dotBelow"/>
  <anchor x="188" y="-335" name="markBelow"/>
  <anchor x="252" y="466" name="kafAbove"/>
  <anchor x="188" y="-200" name="ringBelow"/>
  <anchor x="340.0" y="-60.0" name="dash"/>
  <outline>
    <contour>
      <point x="351" y="0" type="line"/>
      <point x="193" y="0" type="line" smooth="yes"/>
      <point x="111" y="0"/>
      <point x="46" y="68"/>
      <point x="50" y="145" type="curve" smooth="yes"/>
      <point x="62" y="274"/>
      <point x="170" y="349"/>
      <point x="261" y="350" type="curve" smooth="yes"/>
      <point x="329" y="351"/>
      <point x="392" y="305"/>
      <point x="392" y="220" type="curve" smooth="yes"/>
      <point x="392" y="-14" type="line" smooth="yes"/>
      <point x="392" y="-106"/>
      <point x="324" y="-200"/>
      <point x="215" y="-200" type="curve" smooth="yes"/>
      <point x="22" y="-200" type="line"/>
      <point x="22" y="-120" type="line"/>
      <point x="215" y="-120" type="line" smooth="yes"/>
      <point x="273" y="-120"/>
      <point x="314" y="-70"/>
      <point x="314" y="-13" type="curve" smooth="yes"/>
      <point x="314" y="207" type="line" smooth="yes"/>
      <point x="314" y="247"/>
      <point x="295" y="271"/>
      <point x="262" y="271" type="curve" smooth="yes"/>
      <point x="210" y="271"/>
      <point x="137" y="224"/>
      <point x="128" y="139" type="curve" smooth="yes"/>
      <point x="127" y="111"/>
      <point x="154" y="79"/>
      <point x="193" y="79" type="curve" smooth="yes"/>
      <point x="351" y="79" type="line"/>
    </contour>
  </outline>
</glyph>
<glyph name="arYeh.fina.alt1" format="2">
  <advance width="638"/>
  <anchor x="346" y="-280" name="dotBelow"/>
  <anchor x="346" y="-307" name="markBelow"/>
  <anchor x="285" y="232" name="dotAbove"/>
  <anchor x="285" y="232" name="hamzaAbove"/>
  <anchor x="285" y="269" name="markAbove"/>
  <anchor x="285" y="232" name="kafAbove"/>
  <outline>
    <contour>
      <point x="445" y="45" type="line"/>
      <point x="523" y="45" type="line"/>
      <point x="523" y="-97" type="line" smooth="yes"/>
      <point x="523" y="-143"/>
      <point x="488" y="-188"/>
      <point x="434" y="-188" type="curve" smooth="yes"/>
      <point x="297" y="-188" type="line" smooth="yes"/>
      <point x="184" y="-188"/>
      <point x="81" y="-122"/>
      <point x="81" y="-14" type="curve" smooth="yes"/>
      <point x="81" y="173" type="line"/>
      <point x="160" y="173" type="line"/>
      <point x="160" y="-14" type="line" smooth="yes"/>
      <point x="160" y="-55"/>
      <point x="208" y="-109"/>
      <point x="297" y="-109" type="curve" smooth="yes"/>
      <point x="446" y="-109" type="line" smooth="yes"/>
      <point x="449" y="-113"/>
      <point x="449" y="-110"/>
      <point x="445" y="-109" type="curve" smooth="yes"/>
    </contour>
    <contour>
      <point x="651" y="79" type="line"/>
      <point x="651" y="0" type="line"/>
      <point x="385" y="0" type="line"/>
      <point x="385" y="79" type="line"/>
    </contour>
  </outline>
</glyph>
<glyph name="arYeh.fina.alt2" format="2">
  <advance width="832"/>
  <anchor x="352" y="-256" name="dotBelow"/>
  <anchor x="352" y="-282" name="markBelow"/>
  <anchor x="273" y="285" name="dotAbove"/>
  <anchor x="273" y="285" name="hamzaAbove"/>
  <anchor x="273" y="322" name="markAbove"/>
  <anchor x="273" y="285" name="kafAbove"/>
  <outline>
    <contour>
      <point x="845" y="79" type="line"/>
      <point x="845" y="0" type="line"/>
      <point x="721" y="0" type="line" smooth="yes"/>
      <point x="675" y="0"/>
      <point x="638" y="37"/>
      <point x="635" y="84" type="curve" smooth="yes"/>
      <point x="631" y="166" type="line" smooth="yes"/>
      <point x="630" y="198"/>
      <point x="606" y="218"/>
      <point x="559" y="191" type="curve" smooth="yes"/>
      <point x="520" y="170"/>
      <point x="469" y="136"/>
      <point x="443" y="105" type="curve"/>
      <point x="443.0" y="108.5"/>
      <point x="443.0" y="111.5"/>
      <point x="443.0" y="115.0" type="curve"/>
      <point x="570" y="-30" type="line" smooth="yes"/>
      <point x="620.9551205966244" y="-88.17710619300246"/>
      <point x="567" y="-162"/>
      <point x="501" y="-162" type="curve" smooth="yes"/>
      <point x="236" y="-162" type="line" smooth="yes"/>
      <point x="140" y="-163"/>
      <point x="81" y="-84"/>
      <point x="81" y="1" type="curve" smooth="yes"/>
      <point x="81" y="204" type="line"/>
      <point x="160" y="204" type="line"/>
      <point x="160" y="1" type="line" smooth="yes"/>
      <point x="160" y="-50"/>
      <point x="190.98863783066923" y="-84.0"/>
      <point x="235" y="-84" type="curve" smooth="yes"/>
      <point x="517" y="-84" type="line"/>
      <point x="517.35" y="-86.8"/>
      <point x="517.65" y="-89.2"/>
      <point x="518.0" y="-92.0" type="curve"/>
      <point x="399" y="46" type="line" smooth="yes"/>
      <point x="366.1327919431325" y="84.11491354492645"/>
      <point x="362" y="139"/>
      <point x="400" y="173" type="curve" smooth="yes"/>
      <point x="436" y="208"/>
      <point x="480" y="237"/>
      <point x="521" y="260" type="curve" smooth="yes"/>
      <point x="592" y="300"/>
      <point x="674" y="279"/>
      <point x="699" y="208" type="curve" smooth="yes"/>
      <point x="714" y="172"/>
      <point x="712" y="114"/>
      <point x="715" y="67" type="curve"/>
      <point x="710.8" y="71.2"/>
      <point x="707.2" y="74.8"/>
      <point x="703" y="79" type="curve"/>
    </contour>
  </outline>
</glyph>
<glyph name="arYeh.fina2" format="2">
  <advance width="691"/>
  <anchor x="411" y="329" name="dotAbove"/>
  <anchor x="411" y="329" name="hamzaAbove"/>
  <anchor x="411" y="329" name="kafAbove"/>
  <anchor x="411" y="367" name="markAbove"/>
  <anchor x="431" y="-372" name="dotBelow"/>
  <anchor x="431" y="-399" name="markBelow"/>
  <outline>
    <contour>
      <point x="691" y="-197" type="line"/>
      <point x="691" y="-276" type="line"/>
      <point x="253" y="-276" type="line" smooth="yes"/>
      <point x="142" y="-276"/>
      <point x="70" y="-226"/>
      <point x="51" y="-155" type="curve" smooth="yes"/>
      <point x="30" y="-77"/>
      <point x="79" y="7"/>
      <point x="167" y="31" type="curve" smooth="yes"/>
      <point x="264" y="56"/>
      <point x="234" y="70"/>
      <point x="265" y="122" type="curve" smooth="yes"/>
      <point x="292" y="168"/>
      <point x="338" y="207"/>
      <point x="405" y="207" type="curve" smooth="yes"/>
      <point x="457" y="207"/>
      <point x="509" y="177"/>
      <point x="536" y="125" type="curve" smooth="yes"/>
      <point x="556" y="87"/>
      <point x="574.0" y="79.0"/>
      <point x="617" y="79" type="curve" smooth="yes"/>
      <point x="707" y="79" type="line"/>
      <point x="707" y="0" type="line"/>
      <point x="617" y="0" type="line" smooth="yes"/>
      <point x="553.0" y="0.0"/>
      <point x="500" y="28"/>
      <point x="467" y="90" type="curve" smooth="yes"/>
      <point x="453" y="116"/>
      <point x="429" y="129"/>
      <point x="403" y="128" type="curve" smooth="yes"/>
      <point x="369" y="127"/>
      <point x="349" y="108"/>
      <point x="333" y="81" type="curve" smooth="yes"/>
      <point x="321" y="61"/>
      <point x="309" y="-13"/>
      <point x="187" y="-45" type="curve" smooth="yes"/>
      <point x="139" y="-58"/>
      <point x="119" y="-101"/>
      <point x="127" y="-135" type="curve" smooth="yes"/>
      <point x="134" y="-162"/>
      <point x="163" y="-197"/>
      <point x="253" y="-197" type="curve" smooth="yes"/>
    </contour>
  </outline>
</glyph>
<glyph name="arYeh.isol" format="2">
  <advance width="600"/>
  <anchor x="308" y="-190" name="dotBelow"/>
  <anchor x="308" y="-217" name="markBelow"/>
  <anchor x="236" y="336" name="dotAbove"/>
  <anchor x="236" y="336" name="hamzaAbove"/>
  <anchor x="236" y="373" name="markAbove"/>
  <anchor x="236" y="336" name="kafAbove"/>
  <outline>
    <contour>
      <point x="553" y="252" type="line"/>
      <point x="553" y="174" type="line"/>
      <point x="419" y="174" type="line" smooth="yes"/>
      <point x="410" y="177"/>
      <point x="405" y="172"/>
      <point x="416" y="162" type="curve" smooth="yes"/>
      <point x="530" y="25" type="line" smooth="yes"/>
      <point x="577" y="-31"/>
      <point x="523" y="-100"/>
      <point x="456" y="-100" type="curve" smooth="yes"/>
      <point x="226" y="-100" type="line" smooth="yes"/>
      <point x="152" y="-100"/>
      <point x="46" y="-57"/>
      <point x="46" y="64" type="curve" smooth="yes"/>
      <point x="46" y="247" type="line"/>
      <point x="125" y="247" type="line"/>
      <point x="125" y="64" type="line" smooth="yes"/>
      <point x="125" y="2"/>
      <point x="175" y="-22"/>
      <point x="233" y="-22" type="curve" smooth="yes"/>
      <point x="459" y="-22" type="line" smooth="yes"/>
      <point x="468" y="-25"/>
      <point x="471" y="-20"/>
      <point x="464" y="-18" type="curve" smooth="yes"/>
      <point x="358" y="110" type="line" smooth="yes"/>
      <point x="305" y="174"/>
      <point x="347" y="251"/>
      <point x="426" y="252" type="curve" smooth="yes"/>
    </contour>
  </outline>
</glyph>
<glyph name="braceleft.ar" format="2">
  <advance width="446"/>
  <outline>
    <contour>
      <point x="403" y="-212" type="curve"/>
      <point x="403" y="-290" type="line"/>
      <point x="316" y="-290"/>
      <point x="223" y="-244"/>
      <point x="223" y="-128" type="curve" smooth="yes"/>
      <point x="223" y="110" type="line" smooth="yes"/>
      <point x="223" y="152"/>
      <point x="204" y="172"/>
      <point x="165" y="182" type="curve" smooth="yes"/>
      <point x="153" y="186"/>
      <point x="138" y="188"/>
      <point x="121" y="188" type="curve"/>
      <point x="121" y="266" type="line"/>
      <point x="138" y="266"/>
      <point x="153" y="269"/>
      <point x="165" y="272" type="curve" smooth="yes"/>
      <point x="204" y="283"/>
      <point x="223" y="306"/>
      <point x="223" y="345" type="curve" smooth="yes"/>
      <point x="223" y="597" type="line" smooth="yes"/>
      <point x="223" y="699"/>
      <point x="317" y="746"/>
      <point x="404" y="743" type="curve"/>
      <point x="402" y="665" type="line"/>
      <point x="336" y="666"/>
      <point x="301" y="637"/>
      <point x="301" y="597" type="curve" smooth="yes"/>
      <point x="301" y="345" type="line" smooth="yes"/>
      <point x="301" y="297"/>
      <point x="281" y="255"/>
      <point x="245" y="228" type="curve"/>
      <point x="283" y="200"/>
      <point x="301" y="159"/>
      <point x="301" y="110" type="curve" smooth="yes"/>
      <point x="301" y="-128" type="line" smooth="yes"/>
      <point x="301" y="-188"/>
      <point x="338" y="-212"/>
    </contour>
  </outline>
</glyph>
<glyph name="bracketleft.ar" format="2">
  <advance width="344"/>
  <outline>
    <contour>
      <point x="301" y="742" type="line"/>
      <point x="301" y="664" type="line"/>
      <point x="199" y="664" type="line"/>
      <point x="199" y="-210" type="line"/>
      <point x="302" y="-210" type="line"/>
      <point x="302" y="-288" type="line"/>
      <point x="121" y="-288" type="line"/>
      <point x="121" y="742" type="line"/>
    </contour>
  </outline>
</glyph>
<glyph name="dotabove-ar" format="2">
  <anchor x="0" y="0" name="_dotAbove"/>
  <anchor x="0" y="140" name="markAboveDot"/>
  <outline>
    <contour>
      <point x="-42" y="0" type="curve" smooth="yes"/>
      <point x="-42" y="24"/>
      <point x="-24" y="42"/>
      <point x="0" y="42" type="curve" smooth="yes"/>
      <point x="24" y="42"/>
      <point x="42" y="24"/>
      <point x="42" y="0" type="curve" smooth="yes"/>
      <point x="42" y="-24"/>
      <point x="24" y="-42"/>
      <point x="0" y="-42" type="curve" smooth="yes"/>
      <point x="-24" y="-42"/>
      <point x="-42" y="-24"/>
    </contour>
  </outline>
</glyph>
<glyph name="extender" format="2">
  <outline>
    <contour>
      <point x="13" y="79" type="line"/>
      <point x="13" y="0" type="line"/>
      <point x="-13" y="0" type="line"/>
      <point x="-13" y="79" type="line"/>
    </contour>
  </outline>
</glyph>
<glyph name="four-persian.urdu" format="2">
  <advance width="498"/>
  <outline>
    <contour>
      <point x="121" y="0" type="line"/>
      <point x="121" y="505" type="line" smooth="yes"/>
      <point x="121" y="532"/>
      <point x="147" y="568"/>
      <point x="186" y="568" type="curve"/>
      <point x="254" y="568" type="line"/>
      <point x="254" y="401" type="line"/>
      <point x="332" y="401" type="line"/>
      <point x="332" y="506" type="line" smooth="yes"/>
      <point x="332" y="533"/>
      <point x="358" y="568"/>
      <point x="391" y="568" type="curve" smooth="yes"/>
      <point x="455" y="568" type="line"/>
      <point x="455" y="647" type="line"/>
      <point x="392" y="647" type="line" smooth="yes"/>
      <point x="349" y="647"/>
      <point x="317" y="629"/>
      <point x="293" y="603" type="curve"/>
      <point x="293" y="647" type="line"/>
      <point x="187" y="647" type="line"/>
      <point x="104" y="647"/>
      <point x="43" y="577"/>
      <point x="43" y="506" type="curve" smooth="yes"/>
      <point x="43" y="0" type="line"/>
    </contour>
  </outline>
</glyph>
<glyph name="gafsarkashabove-ar" format="2">
  <anchor x="0" y="0" name="_gafAbove"/>
  <anchor x="-196" y="0" name="dotAboveGaf"/>
  <outline>
    <contour>
      <point x="-150" y="-50" type="curve"/>
      <point x="-180" y="-3" type="line"/>
      <point x="-73" y="63"/>
      <point x="133" y="109"/>
      <point x="179" y="110" type="curve"/>
      <point x="180" y="54" type="line"/>
      <point x="152" y="53"/>
      <point x="-60" y="6"/>
    </contour>
  </outline>
</glyph>
<glyph name="hah-ar.2" format="2">
  <advance width="535"/>
  <anchor x="219" y="511" name="dotAbove"/>
  <anchor x="302" y="-9" name="dotBelow"/>
  <anchor x="219" y="511" name="hamzaAbove"/>
  <anchor x="219" y="549" name="markAbove"/>
  <anchor x="303" y="-43" name="markBelow"/>
  <outline>
    <contour>
      <point x="46" y="-104" type="curve" smooth="yes"/>
      <point x="46" y="41" type="line" smooth="yes"/>
      <point x="46" y="106"/>
      <point x="98" y="170"/>
      <point x="175" y="170" type="curve" smooth="yes"/>
      <point x="354" y="170" type="line"/>
      <point x="336" y="175"/>
      <point x="324" y="187"/>
      <point x="313" y="199" type="curve" smooth="yes"/>
      <point x="269" y="248"/>
      <point x="233" y="313"/>
      <point x="134" y="351" type="curve"/>
      <point x="163" y="424" type="line"/>
      <point x="286" y="378"/>
      <point x="338" y="289"/>
      <point x="372" y="252" type="curve" smooth="yes"/>
      <point x="416" y="204"/>
      <point x="427" y="200"/>
      <point x="488" y="200" type="curve"/>
      <point x="488" y="161" type="line" smooth="yes"/>
      <point x="488" y="141"/>
      <point x="473" y="91"/>
      <point x="422" y="91" type="curve" smooth="yes"/>
      <point x="175" y="91" type="line" smooth="yes"/>
      <point x="150" y="91"/>
      <point x="126" y="68"/>
      <point x="126" y="41" type="curve" smooth="yes"/>
      <point x="126" y="-185" type="line"/>
      <point x="76" y="-185"/>
      <point x="46" y="-149"/>
    </contour>
  </outline>
</glyph>
<glyph name="hah-ar.init" format="2">
  <advance width="595"/>
  <anchor x="172" y="450" name="dotAbove"/>
  <anchor x="246" y="-150" name="dotBelow"/>
  <anchor x="172" y="450" name="hamzaAbove"/>
  <anchor x="172" y="488" name="markAbove"/>
  <anchor x="246" y="-176" name="markBelow"/>
  <outline>
    <contour>
      <point x="0" y="0" type="line"/>
      <point x="0" y="79" type="line"/>
      <point x="422" y="79" type="line"/>
      <point x="421.65" y="77.25"/>
      <point x="421.35" y="75.75"/>
      <point x="421" y="74" type="curve"/>
      <point x="401" y="81"/>
      <point x="382" y="96"/>
      <point x="366" y="111" type="curve" smooth="yes"/>
      <point x="323" y="150"/>
      <point x="277" y="202"/>
      <point x="236" y="231" type="curve" smooth="yes"/>
      <point x="187" y="266"/>
      <point x="139" y="277"/>
      <point x="98" y="287" type="curve"/>
      <point x="116" y="364" type="line"/>
      <point x="157" y="354"/>
      <point x="219" y="339"/>
      <point x="280" y="296" type="curve" smooth="yes"/>
      <point x="338" y="255"/>
      <point x="385" y="199"/>
      <point x="425" y="164" type="curve" smooth="yes"/>
      <point x="473" y="122"/>
      <point x="486" y="117"/>
      <point x="547" y="117" type="curve"/>
      <point x="549" y="81" type="line" smooth="yes"/>
      <point x="551" y="50"/>
      <point x="534" y="0"/>
      <point x="483" y="0" type="curve" smooth="yes"/>
    </contour>
  </outline>
</glyph>
<glyph name="kaf-ar.init" format="2">
  <advance width="564"/>
  <anchor x="82" y="639" name="dotAbove"/>
  <anchor x="206" y="-149" name="dotBelow"/>
  <anchor x="330" y="649" name="gafAbove"/>
  <anchor x="273" y="688" name="markAbove"/>
  <anchor x="206" y="-173" name="markBelow"/>
  <anchor x="373" y="535" name="ringBelow"/>
  <outline>
    <contour>
      <point x="0" y="0" type="line"/>
      <point x="0" y="79" type="line"/>
      <point x="446" y="79" type="line"/>
      <point x="446.35" y="76.2"/>
      <point x="446.65" y="73.8"/>
      <point x="447" y="71" type="curve"/>
      <point x="182.265" y="341.67" type="line" smooth="yes"/>
      <point x="179.756" y="344.235"/>
      <point x="177" y="345"/>
      <point x="173.412" y="345" type="curve" smooth="yes"/>
      <point x="163.301" y="345" type="line" smooth="yes"/>
      <point x="159.766" y="345"/>
      <point x="157.115" y="345.904"/>
      <point x="154.642" y="348.429" type="curve" smooth="yes"/>
      <point x="121.391" y="382.383" type="line" smooth="yes"/>
      <point x="78.845" y="425.827"/>
      <point x="79.326" y="488.091"/>
      <point x="150" y="531" type="curve" smooth="yes"/>
      <point x="262" y="599"/>
      <point x="465" y="645"/>
      <point x="514" y="646" type="curve"/>
      <point x="515" y="568" type="line"/>
      <point x="490" y="567"/>
      <point x="275" y="519"/>
      <point x="183" y="460" type="curve" smooth="yes"/>
      <point x="179" y="457"/>
      <point x="183.02" y="454.04"/>
      <point x="186" y="451" type="curve" smooth="yes"/>
      <point x="482" y="149" type="line" smooth="yes"/>
      <point x="535" y="95"/>
      <point x="497" y="0"/>
      <point x="419" y="0" type="curve" smooth="yes"/>
    </contour>
  </outline>
</glyph>
<glyph name="kafswash-ar.init" format="2">
  <advance width="849"/>
  <anchor x="141" y="515" name="markAbove"/>
  <anchor x="395" y="-173" name="markBelow"/>
  <outline>
    <contour>
      <point x="0" y="0" type="line"/>
      <point x="0" y="79" type="line"/>
      <point x="737" y="79" type="line"/>
      <point x="737" y="76.2"/>
      <point x="737" y="73.8"/>
      <point x="737" y="71" type="curve"/>
      <point x="705" y="134"/>
      <point x="670" y="201"/>
      <point x="566" y="201" type="curve" smooth="yes"/>
      <point x="127" y="201" type="line" smooth="yes"/>
      <point x="8" y="201"/>
      <point x="49.839" y="302.134"/>
      <point x="95" y="356" type="curve" smooth="yes"/>
      <point x="177.718" y="454.661"/>
      <point x="327" y="511"/>
      <point x="437" y="530" type="curve"/>
      <point x="452" y="452" type="line"/>
      <point x="361" y="434"/>
      <point x="195" y="371"/>
      <point x="124" y="269" type="curve"/>
      <point x="121.2" y="272.5"/>
      <point x="118.8" y="275.5"/>
      <point x="116" y="279" type="curve"/>
      <point x="566" y="279" type="line" smooth="yes"/>
      <point x="720" y="279"/>
      <point x="774" y="162"/>
      <point x="788" y="142" type="curve" smooth="yes"/>
      <point x="816" y="101"/>
      <point x="809" y="0"/>
      <point x="712" y="0" type="curve" smooth="yes"/>
    </contour>
  </outline>
</glyph>
<glyph name="meem-ar.fina" format="2">
  <advance width="485"/>
  <outline>
    <contour>
      <point x="501" y="79" type="line"/>
      <point x="501" y="0" type="line"/>
      <point x="460" y="0" type="line"/>
      <point x="460" y="79" type="line"/>
    </contour>
    <component base="meem-ar.isol"/>
  </outline>
</glyph>
<glyph name="meem-ar.isol" format="2">
  <advance width="531"/>
  <anchor x="283" y="449" name="dotAbove"/>
  <anchor x="205" y="-109" name="dotBelow"/>
  <anchor x="283" y="486" name="markAbove"/>
  <anchor x="205" y="-135" name="markBelow"/>
  <outline>
    <contour>
      <point x="139" y="105.825" type="line"/>
      <point x="139" y="225" type="line" smooth="yes"/>
      <point x="139" y="265"/>
      <point x="154" y="301"/>
      <point x="180" y="325" type="curve" smooth="yes"/>
      <point x="238" y="382"/>
      <point x="340" y="378"/>
      <point x="401" y="315" type="curve" smooth="yes"/>
      <point x="457" y="256"/>
      <point x="485" y="202"/>
      <point x="485" y="149" type="curve" smooth="yes"/>
      <point x="485" y="45"/>
      <point x="380" y="0"/>
      <point x="291" y="0" type="curve" smooth="yes"/>
      <point x="114.774" y="0" type="line"/>
      <point x="118.353" y="3.432"/>
      <point x="121.421" y="6.374"/>
      <point x="125" y="9.806" type="curve"/>
      <point x="125" y="-200" type="line"/>
      <point x="46" y="-200" type="line"/>
      <point x="46" y="-13" type="line" smooth="yes"/>
      <point x="46" y="38"/>
      <point x="86" y="79"/>
      <point x="139" y="79" type="curve" smooth="yes"/>
      <point x="291" y="79" type="line" smooth="yes"/>
      <point x="367" y="79"/>
      <point x="406" y="112"/>
      <point x="406" y="149" type="curve" smooth="yes"/>
      <point x="406" y="172"/>
      <point x="392" y="210"/>
      <point x="344" y="261" type="curve" smooth="yes"/>
      <point x="311" y="295"/>
      <point x="259" y="292"/>
      <point x="235" y="269" type="curve" smooth="yes"/>
      <point x="225" y="259"/>
      <point x="218" y="246"/>
      <point x="218" y="225" type="curve" smooth="yes"/>
      <point x="218" y="105.825" type="line"/>
    </contour>
  </outline>
</glyph>
<glyph name="meem-ar.medi" format="2">
  <advance width="459"/>
  <anchor x="257" y="449" name="dotAbove"/>
  <anchor x="179" y="-109" name="dotBelow"/>
  <anchor x="257" y="485" name="markAbove"/>
  <anchor x="179" y="-136" name="markBelow"/>
  <outline>
    <contour>
      <point x="475" y="79" type="line"/>
      <point x="475" y="0" type="line"/>
      <point x="434" y="0" type="line"/>
      <point x="434" y="79" type="line"/>
    </contour>
    <component base="meem-ar.init"/>
  </outline>
</glyph>
<glyph name="miniKeheh-ar" format="2">
  <anchor x="0" y="0" name="_kafAbove"/>
  <anchor x="0" y="286" name="dotAbove"/>
  <anchor x="0" y="313" name="markAbove"/>
  <outline>
    <contour>
      <point x="96" y="167" type="line"/>
      <point x="96" y="111" type="line"/>
      <point x="22" y="111" type="line"/>
      <point x="48" y="57" type="line" smooth="yes"/>
      <point x="52" y="47"/>
      <point x="61" y="31"/>
      <point x="49" y="15" type="curve" smooth="yes"/>
      <point x="40" y="1"/>
      <point x="22" y="0"/>
      <point x="14" y="0" type="curve" smooth="yes"/>
      <point x="-96" y="0" type="line"/>
      <point x="-96" y="56" type="line"/>
      <point x="-14" y="56" type="line"/>
      <point x="-40" y="110" type="line"/>
      <point x="-40" y="110"/>
      <point x="-54" y="133"/>
      <point x="-41" y="151" type="curve" smooth="yes"/>
      <point x="-35" y="160"/>
      <point x="-22" y="167"/>
      <point x="-4" y="167" type="curve" smooth="yes"/>
    </contour>
  </outline>
</glyph>
<glyph name="noonghunna-ar.fina" format="2">
  <advance width="603"/>
  <anchor x="273" y="302" name="dotAbove"/>
  <anchor x="273" y="-297" name="dotBelow"/>
  <anchor x="273" y="340" name="markAbove"/>
  <anchor x="273" y="-323" name="markBelow"/>
  <anchor x="273" y="-188" name="ringBelow"/>
  <outline>
    <contour>
      <point x="619" y="79" type="line"/>
      <point x="619" y="0" type="line"/>
      <point x="475" y="0" type="line"/>
      <point x="475" y="79" type="line"/>
    </contour>
    <component base="noonghunna-ar"/>
  </outline>
</glyph>
<glyph name="parenleft.ar" format="2">
  <advance width="395"/>
  <outline>
    <contour>
      <point x="284" y="776" type="curve"/>
      <point x="351" y="736" type="line"/>
      <point x="150" y="403"/>
      <point x="143" y="74"/>
      <point x="354" y="-282" type="curve"/>
      <point x="286" y="-322" type="line"/>
      <point x="62" y="56"/>
      <point x="69" y="421"/>
    </contour>
  </outline>
</glyph>
<glyph name="reh-ar.fina" format="2">
  <advance width="361"/>
  <anchor x="70" y="0" name="center"/>
  <anchor x="210" y="-50" name="dash"/>
  <anchor x="212" y="329" name="dotAbove"/>
  <anchor x="122" y="-312" name="dotBelow"/>
  <anchor x="212" y="329" name="hamzaAbove"/>
  <anchor x="151" y="366" name="markAbove"/>
  <anchor x="122" y="-338" name="markBelow"/>
  <anchor x="122" y="-197" name="ringBelow"/>
  <outline>
    <contour>
      <point x="377" y="79" type="line"/>
      <point x="377" y="0" type="line"/>
      <point x="238" y="0" type="line"/>
      <point x="238" y="79" type="line"/>
    </contour>
    <component base="reh-ar"/>
  </outline>
</glyph>
<glyph name="reh-ar.isol" format="2">
  <advance width="302"/>
  <anchor x="210" y="-50" name="dash"/>
  <anchor x="212" y="329" name="dotAbove"/>
  <anchor x="122" y="-312" name="dotBelow"/>
  <anchor x="70" y="0" name="dotMiddle"/>
  <anchor x="212" y="329" name="hamzaAbove"/>
  <anchor x="151" y="366" name="markAbove"/>
  <anchor x="122" y="-338" name="markBelow"/>
  <anchor x="122" y="-197" name="ringBelow"/>
  <outline>
    <contour>
      <point x="176" y="136.669" type="line" smooth="yes"/>
      <point x="176" y="177"/>
      <point x="209.471" y="174"/>
      <point x="255" y="174" type="curve"/>
      <point x="255" y="-14" type="line" smooth="yes"/>
      <point x="255" y="-112"/>
      <point x="197" y="-200"/>
      <point x="91" y="-200" type="curve" smooth="yes"/>
      <point x="0" y="-200" type="line"/>
      <point x="0" y="-122" type="line"/>
      <point x="91" y="-122" type="line" smooth="yes"/>
      <point x="147" y="-122"/>
      <point x="176" y="-80"/>
      <point x="176" y="-14" type="curve" smooth="yes"/>
    </contour>
  </outline>
</glyph>
<glyph name="ring-ar" format="2">
  <anchor x="0" y="87" name="_ringBelow"/>
  <anchor x="0" y="-174" name="markBelowDot"/>
  <outline>
    <contour>
      <point x="-42" y="0" type="curve" smooth="yes"/>
      <point x="-42" y="24"/>
      <point x="-24" y="42"/>
      <point x="0" y="42" type="curve" smooth="yes"/>
      <point x="24" y="42"/>
      <point x="42" y="24"/>
      <point x="42" y="0" type="curve" smooth="yes"/>
      <point x="42" y="-24"/>
      <point x="24" y="-42"/>
      <point x="0" y="-42" type="curve" smooth="yes"/>
      <point x="-24" y="-42"/>
      <point x="-42" y="-24"/>
    </contour>
    <contour>
      <point x="-87" y="0" type="curve" smooth="yes"/>
      <point x="-87" y="-49"/>
      <point x="-48" y="-87"/>
      <point x="0" y="-87" type="curve" smooth="yes"/>
      <point x="49" y="-87"/>
      <point x="87" y="-48"/>
      <point x="87" y="0" type="curve" smooth="yes"/>
      <point x="87" y="49"/>
      <point x="48" y="87"/>
      <point x="0" y="87" type="curve" smooth="yes"/>
      <point x="-49" y="87"/>
      <point x="-87" y="48"/>
    </contour>
  </outline>
</glyph>
<glyph name="sad-ar.init" format="2">
  <advance width="694"/>
  <anchor x="302" y="427" name="dotAbove"/>
  <anchor x="390" y="-149" name="dotBelow"/>
  <anchor x="302" y="465" name="markAbove"/>
  <anchor x="390" y="-175" name="markBelow"/>
  <outline>
    <contour>
      <point x="0" y="0" type="line"/>
      <point x="0" y="79" type="line"/>
      <point x="174" y="79" type="line"/>
      <point x="174" y="0" type="line"/>
    </contour>
    <contour>
      <point x="99" y="264" type="line"/>
      <point x="177" y="264" type="line"/>
      <point x="177" y="70" type="line"/>
      <point x="99" y="70" type="line"/>
    </contour>
    <component base="_sad-ar.head" xOffset="406"/>
  </outline>
</glyph>
<glyph name="seen-ar.init" format="2">
  <advance width="676"/>
  <anchor x="405" y="513" name="dotAbove"/>
  <anchor x="405" y="-149" name="dotBelow"/>
  <anchor x="405" y="549" name="markAbove"/>
  <anchor x="405" y="-176" name="markBelow"/>
  <outline>
    <contour>
      <point x="193" y="363" type="line"/>
      <point x="272" y="363" type="line"/>
      <point x="272" y="91" type="line" smooth="yes"/>
      <point x="272" y="39"/>
      <point x="230" y="0"/>
      <point x="179" y="0" type="curve" smooth="yes"/>
      <point x="0" y="0" type="line"/>
      <point x="0" y="79" type="line"/>
      <point x="203" y="79" type="line"/>
      <point x="199.5" y="75.5"/>
      <point x="196.5" y="72.5"/>
      <point x="193" y="69" type="curve"/>
    </contour>
    <contour>
      <point x="372" y="363" type="line"/>
      <point x="450" y="363" type="line"/>
      <point x="450" y="91" type="line" smooth="yes"/>
      <point x="450" y="39"/>
      <point x="408" y="0"/>
      <point x="358" y="0" type="curve" smooth="yes"/>
      <point x="265" y="0" type="line"/>
      <point x="265" y="79" type="line"/>
      <point x="382" y="79" type="line"/>
      <point x="378.5" y="75.5"/>
      <point x="375.5" y="72.5"/>
      <point x="372" y="69" type="curve"/>
    </contour>
    <contour>
      <point x="551" y="363" type="line"/>
      <point x="629" y="363" type="line"/>
      <point x="629" y="91" type="line" smooth="yes"/>
      <point x="629" y="39"/>
      <point x="588" y="0"/>
      <point x="537" y="0" type="curve" smooth="yes"/>
      <point x="443" y="0" type="line"/>
      <point x="443" y="79" type="line"/>
      <point x="561" y="79" type="line"/>
      <point x="557.5" y="75.5"/>
      <point x="554.5" y="72.5"/>
      <point x="551" y="69" type="curve"/>
    </contour>
  </outline>
</glyph>
<glyph name="seen-ar.isol" format="2">
  <advance width="901"/>
  <anchor x="627" y="512" name="dotAbove"/>
  <anchor x="670" y="-111" name="dotBelow"/>
  <anchor x="627" y="549" name="markAbove"/>
  <anchor x="258" y="-337" name="markBelow"/>
  <outline>
    <contour>
      <point x="415" y="365" type="line"/>
      <point x="494" y="365" type="line"/>
      <point x="494" y="-110" type="line" smooth="yes"/>
      <point x="494" y="-161"/>
      <point x="453" y="-202"/>
      <point x="402" y="-202" type="curve" smooth="yes"/>
      <point x="135" y="-202" type="line" smooth="yes"/>
      <point x="82" y="-202"/>
      <point x="46" y="-153"/>
      <point x="46" y="-106" type="curve" smooth="yes"/>
      <point x="46" y="172" type="line"/>
      <point x="125" y="172" type="line"/>
      <point x="125" y="-133" type="line"/>
      <point x="121.5" y="-129.5"/>
      <point x="118.5" y="-126.5"/>
      <point x="115" y="-123" type="curve"/>
      <point x="425" y="-123" type="line"/>
      <point x="421.5" y="-126.5"/>
      <point x="418.5" y="-129.5"/>
      <point x="415" y="-133" type="curve"/>
    </contour>
    <contour>
      <point x="595" y="363" type="line"/>
      <point x="674" y="363" type="line"/>
      <point x="674" y="91" type="line" smooth="yes"/>
      <point x="674" y="39"/>
      <point x="632" y="0"/>
      <point x="581" y="0" type="curve" smooth="yes"/>
      <point x="489" y="0" type="line"/>
      <point x="489" y="79" type="line"/>
      <point x="605" y="79" type="line"/>
      <point x="601.5" y="75.5"/>
      <point x="598.5" y="72.5"/>
      <point x="595" y="69" type="curve"/>
    </contour>
    <contour>
      <point x="776" y="363" type="line"/>
      <point x="854" y="363" type="line"/>
      <point x="854" y="91" type="line" smooth="yes"/>
      <point x="854" y="39"/>
      <point x="812" y="0"/>
      <point x="761" y="0" type="curve" smooth="yes"/>
      <point x="667" y="0" type="line"/>
      <point x="667" y="79" type="line"/>
      <point x="786" y="79" type="line"/>
      <point x="782.5" y="75.5"/>
      <point x="779.5" y="72.5"/>
      <point x="776" y="69" type="curve"/>
    </contour>
  </outline>
</glyph>
<glyph name="seven-persian.urdu" format="2">
  <advance width="443.83492"/>
  <outline>
    <contour>
      <point x="400.835" y="79" type="line"/>
      <point x="111" y="79" type="line"/>
      <point x="115.2" y="73.4"/>
      <point x="118.8" y="68.6"/>
      <point x="123" y="63" type="curve"/>
      <point x="268.835" y="631" type="line"/>
      <point x="192.835" y="650" type="line"/>
      <point x="44.835" y="72" type="line" smooth="yes"/>
      <point x="36.954" y="41.223"/>
      <point x="60.835" y="0"/>
      <point x="103.835" y="0" type="curve" smooth="yes"/>
      <point x="400.835" y="0" type="line"/>
    </contour>
  </outline>
</glyph>
<glyph name="tah-ar.isol" format="2">
  <advance width="637.86685"/>
  <anchor x="382" y="485" name="dotAbove"/>
  <anchor x="345" y="-110" name="dotBelow"/>
  <anchor x="382" y="522" name="markAbove"/>
  <anchor x="345" y="-136" name="markBelow"/>
  <outline>
    <contour>
      <point x="151" y="624" type="line"/>
      <point x="231" y="624" type="line"/>
      <point x="231" y="259.089" type="line" smooth="yes"/>
      <point x="231" y="163.743"/>
      <point x="213" y="97"/>
      <point x="207" y="64" type="curve"/>
      <point x="141" y="64" type="line"/>
      <point x="151" y="121.291"/>
      <point x="151" y="176.19"/>
      <point x="151" y="230.095" type="curve" smooth="yes"/>
    </contour>
    <contour>
      <point x="45.825" y="-0.176" type="line"/>
      <point x="45.825" y="78.824" type="line"/>
      <point x="521.825" y="78.824" type="line"/>
      <point x="518.325" y="75.324"/>
      <point x="515.325" y="72.324"/>
      <point x="511.825" y="68.824" type="curve"/>
      <point x="510.825" y="156.824" type="line" smooth="yes"/>
      <point x="509.973" y="231.826"/>
      <point x="490.825" y="255.824"/>
      <point x="458.825" y="268.824" type="curve" smooth="yes"/>
      <point x="388.825" y="294.824"/>
      <point x="309" y="208"/>
      <point x="191" y="33" type="curve"/>
      <point x="140" y="63" type="line"/>
      <point x="223" y="211"/>
      <point x="329.825" y="401.824"/>
      <point x="487.825" y="342.824" type="curve" smooth="yes"/>
      <point x="556.825" y="313.824"/>
      <point x="587.159" y="246.806"/>
      <point x="589.825" y="158.824" type="curve" smooth="yes"/>
      <point x="591.825" y="92.824" type="line" smooth="yes"/>
      <point x="593.401" y="40.838"/>
      <point x="549.825" y="-0.176"/>
      <point x="498.825" y="-0.176" type="curve" smooth="yes"/>
    </contour>
  </outline>
</glyph>
<glyph name="tail-ar" format="2">
  <anchor x="0" y="0" name="_tailAbove"/>
  <outline>
    <contour>
      <point x="-16" y="60" type="line"/>
      <point x="34" y="0" type="line"/>
      <point x="-64" y="-83" type="line"/>
      <point x="-104" y="-45" type="line"/>
    </contour>
  </outline>
</glyph>
<glyph name="uni0664.alt" format="2">
  <advance width="549"/>
  <outline>
    <contour>
      <point x="314" y="633" type="line"/>
      <point x="361" y="570" type="line"/>
      <point x="175" y="434" type="line" smooth="yes"/>
      <point x="167" y="435"/>
      <point x="165" y="436"/>
      <point x="178" y="432" type="curve" smooth="yes"/>
      <point x="318" y="306" type="line" smooth="yes"/>
      <point x="336" y="289"/>
      <point x="337" y="257"/>
      <point x="322" y="239" type="curve" smooth="yes"/>
      <point x="180" y="82" type="line" smooth="yes"/>
      <point x="172" y="78"/>
      <point x="170" y="74"/>
      <point x="178" y="79" type="curve" smooth="yes"/>
      <point x="459" y="79" type="line"/>
      <point x="459" y="0" type="line"/>
      <point x="146" y="0" type="line" smooth="yes"/>
      <point x="119" y="0"/>
      <point x="99" y="30"/>
      <point x="94" y="45" type="curve" smooth="yes"/>
      <point x="83" y="78"/>
      <point x="102" y="113"/>
      <point x="125" y="138" type="curve" smooth="yes"/>
      <point x="243" y="268" type="line"/>
      <point x="136" y="364" type="line" smooth="yes"/>
      <point x="119" y="380"/>
      <point x="98" y="404"/>
      <point x="99" y="439" type="curve" smooth="yes"/>
      <point x="99" y="467"/>
      <point x="117" y="489"/>
      <point x="138" y="505" type="curve"/>
    </contour>
  </outline>
</glyph>
<glyph name="uni06F4.urd" format="2">
  <advance width="498.0"/>
  <outline>
    <contour>
      <point x="121.0" y="0.0" type="line"/>
      <point x="121.0" y="505.0" type="line" smooth="yes"/>
      <point x="121.0" y="532.0"/>
      <point x="147.0" y="568.0"/>
      <point x="186.0" y="568.0" type="curve"/>
      <point x="254.0" y="568.0" type="line"/>
      <point x="254.0" y="401.0" type="line"/>
      <point x="332.0" y="401.0" type="line"/>
      <point x="332.0" y="506.0" type="line" smooth="yes"/>
      <point x="332.0" y="533.0"/>
      <point x="358.0" y="568.0"/>
      <point x="391.0" y="568.0" type="curve" smooth="yes"/>
      <point x="455.0" y="568.0" type="line"/>
      <point x="455.0" y="647.0" type="line"/>
      <point x="392.0" y="647.0" type="line" smooth="yes"/>
      <point x="349.0" y="647.0"/>
      <point x="317.0" y="629.0"/>
      <point x="293.0" y="603.0" type="curve"/>
      <point x="293.0" y="647.0" type="line"/>
      <point x="187.0" y="647.0" type="line"/>
      <point x="104.0" y="647.0"/>
      <point x="43.0" y="577.0"/>
      <point x="43.0" y="506.0" type="curve" smooth="yes"/>
      <point x="43.0" y="0.0" type="line"/>
    </contour>
  </outline>
</glyph>
<glyph name="uni06F7.urd" format="2">
  <advance width="443.83492279052734"/>
  <outline>
    <contour>
      <point x="400.83492279052734" y="79" type="line"/>
      <point x="111.0" y="79.0" type="line"/>
      <point x="115.2" y="73.4"/>
      <point x="118.8" y="68.6"/>
      <point x="123.0" y="63.0" type="curve"/>
      <point x="268.83492279052734" y="631" type="line"/>
      <point x="192.83492279052734" y="650" type="line"/>
      <point x="44.834922790527344" y="72" type="line" smooth="yes"/>
      <point x="36.95439712831438" y="41.22335248135744"/>
      <point x="60.834923694824965" y="0.0"/>
      <point x="103.83492369482494" y="0.0" type="curve" smooth="yes"/>
      <point x="400.83492279052734" y="0" type="line"/>
    </contour>
  </outline>
</glyph>
<glyph name="wasla-ar" format="2">
  <anchor x="0" y="0" name="_hamzaAbove"/>
  <anchor x="0" y="278" name="markAbove"/>
  <outline>
    <contour>
      <point x="-82" y="0" type="line"/>
      <point x="-142" y="0" type="line"/>
      <point x="-142" y="39" type="line"/>
      <point x="-82" y="39" type="line"/>
    </contour>
    <contour>
      <point x="-93" y="38" type="line"/>
      <point x="-46" y="104"/>
      <point x="12" y="200"/>
      <point x="91" y="171" type="curve" smooth="yes"/>
      <point x="126" y="157"/>
      <point x="141" y="124"/>
      <point x="142" y="79" type="curve" smooth="yes"/>
      <point x="143" y="46" type="line" smooth="yes"/>
      <point x="144" y="20"/>
      <point x="122" y="0"/>
      <point x="97" y="0" type="curve" smooth="yes"/>
      <point x="-99" y="0" type="line"/>
      <point x="-99" y="39" type="line"/>
      <point x="113" y="39" type="line"/>
      <point x="109.5" y="35.5"/>
      <point x="106.5" y="32.5"/>
      <point x="103" y="29" type="curve"/>
      <point x="103" y="79" type="line" smooth="yes"/>
      <point x="103" y="116.014"/>
      <point x="92" y="128"/>
      <point x="77" y="135" type="curve" smooth="yes"/>
      <point x="41" y="147"/>
      <point x="1" y="105"/>
      <point x="-59" y="18" type="curve"/>
    </contour>
  </outline>
</glyph>
<glyph name="wavyhamzaabove-ar" format="2">
  <anchor x="0" y="0" name="_hamzaAbove"/>
  <anchor x="0" y="250" name="markAbove"/>
  <outline>
    <contour>
      <point x="-44" y="0" type="line"/>
      <point x="-62" y="0" type="line" smooth="yes"/>
      <point x="-90" y="0"/>
      <point x="-114" y="8"/>
      <point x="-134" y="39" type="curve" smooth="yes"/>
      <point x="-144" y="54"/>
      <point x="-148" y="55"/>
      <point x="-154" y="55" type="curve" smooth="yes"/>
      <point x="-160" y="55"/>
      <point x="-173" y="44"/>
      <point x="-172" y="0" type="curve"/>
      <point x="-228" y="0" type="line"/>
      <point x="-230" y="66"/>
      <point x="-203" y="111"/>
      <point x="-156" y="111" type="curve" smooth="yes"/>
      <point x="-125" y="111"/>
      <point x="-107" y="98"/>
      <point x="-92" y="78" type="curve" smooth="yes"/>
      <point x="-81" y="63"/>
      <point x="-74" y="56"/>
      <point x="-62" y="56" type="curve" smooth="yes"/>
      <point x="-44" y="56" type="line"/>
    </contour>
    <contour>
      <point x="96" y="167" type="line"/>
      <point x="96" y="111" type="line"/>
      <point x="22" y="111" type="line"/>
      <point x="48" y="57" type="line" smooth="yes"/>
      <point x="52" y="47"/>
      <point x="61" y="31"/>
      <point x="49" y="15" type="curve" smooth="yes"/>
      <point x="40" y="1"/>
      <point x="22" y="0"/>
      <point x="14" y="0" type="curve" smooth="yes"/>
      <point x="-53" y="0" type="line"/>
      <point x="-53" y="56" type="line"/>
      <point x="-14" y="56" type="line"/>
      <point x="-40" y="110" type="line"/>
      <point x="-40" y="110"/>
      <point x="-54" y="133"/>
      <point x="-41" y="151" type="curve" smooth="yes"/>
      <point x="-35" y="160"/>
      <point x="-22" y="167"/>
      <point x="-4" y="167" type="curve" smooth="yes"/>
    </contour>
  </outline>
</glyph>
<glyph name="waw-ar.fina" format="2">
  <advance width="482"/>
  <anchor x="340" y="-60" name="dash"/>
  <anchor x="252" y="466" name="dotAbove"/>
  <anchor x="188" y="-309" name="dotBelow"/>
  <anchor x="252" y="466" name="hamzaAbove"/>
  <anchor x="252" y="466" name="kafAbove"/>
  <anchor x="220" y="503" name="markAbove"/>
  <anchor x="188" y="-335" name="markBelow"/>
  <anchor x="188" y="-200" name="ringBelow"/>
  <outline>
    <contour>
      <point x="497" y="79" type="line"/>
      <point x="497" y="0" type="line"/>
      <point x="349" y="0" type="line"/>
      <point x="349" y="79" type="line"/>
    </contour>
    <component base="waw-ar"/>
  </outline>
</glyph>
